<svg width="54" height="38" viewBox="0 0 54 38" fill="none" xmlns="http://www.w3.org/2000/svg">
<path d="M49.5 0.25H4.5C3.50544 0.25 2.55161 0.645088 1.84835 1.34835C1.14509 2.05161 0.75 3.00544 0.75 4V34C0.75 34.9946 1.14509 35.9484 1.84835 36.6516C2.55161 37.3549 3.50544 37.75 4.5 37.75H49.5C50.4946 37.75 51.4484 37.3549 52.1516 36.6516C52.8549 35.9484 53.25 34.9946 53.25 34V4C53.25 3.00544 52.8549 2.05161 52.1516 1.34835C51.4484 0.645088 50.4946 0.25 49.5 0.25ZM45.375 4L27 16.7125L8.625 4H45.375ZM4.5 34V5.70625L25.9313 20.5375C26.2451 20.7552 26.618 20.8719 27 20.8719C27.382 20.8719 27.7549 20.7552 28.0687 20.5375L49.5 5.70625V34H4.5Z" fill="#3C3C3C" fill-opacity="0.78"/>
</svg>
