<svg xmlns="http://www.w3.org/2000/svg" width="48" height="48" fill="none" viewBox="0 0 48 48"><path fill="#374B43" d="M4 11.99C4 10.89 4.892 10 5.99 10H22.01C22.5378 10 23.0439 10.2097 23.4171 10.5829C23.7903 10.9561 24 11.4622 24 11.99C24 12.5178 23.7903 13.0239 23.4171 13.3971C23.0439 13.7703 22.5378 13.98 22.01 13.98H5.99C5.46222 13.98 4.95606 13.7703 4.58286 13.3971C4.20966 13.0239 4 12.5178 4 11.99Z"/><path fill="#374B43" d="M4 24C4 22.9 4.892 22.01 5.99 22.01H42.01C42.5378 22.01 43.0439 22.2197 43.4171 22.5929C43.7903 22.9661 44 23.4722 44 24C44 24.5278 43.7903 25.034 43.4171 25.4072C43.0439 25.7803 42.5378 25.99 42.01 25.99H5.99C5.46222 25.99 4.95606 25.7803 4.58286 25.4072C4.20966 25.034 4 24.5278 4 24Z"/><path fill="#374B43" d="M5.99 34.02C5.46222 34.02 4.95606 34.2297 4.58286 34.6029C4.20966 34.9761 4 35.4822 4 36.01C4 36.5378 4.20966 37.044 4.58286 37.4172C4.95606 37.7904 5.46222 38 5.99 38H30.01C30.5378 38 31.0439 37.7904 31.4171 37.4172C31.7903 37.044 32 36.5378 32 36.01C32 35.4822 31.7903 34.9761 31.4171 34.6029C31.0439 34.2297 30.5378 34.02 30.01 34.02H5.99Z"/></svg>