<svg xmlns="http://www.w3.org/2000/svg" width="345" height="326" fill="none" viewBox="0 0 345 326"><g clip-path="url(#clip0)"><path fill="#374B43" d="M3.28394 106.116H9.69362V133.8H3.28394V106.116ZM39.6184 112.207C41.5967 112.207 43.3905 112.668 44.9994 113.591C46.6349 114.487 47.9139 115.766 48.8373 117.427C49.7606 119.062 50.2221 120.973 50.2221 123.162C50.2221 125.35 49.7606 127.275 48.8373 128.936C47.9139 130.571 46.6349 131.849 44.9994 132.772C43.3905 133.668 41.5967 134.117 39.6184 134.117C36.6906 134.117 34.4617 133.194 32.9318 131.348V133.8H27.0365V104.455H33.2088V114.777C34.765 113.064 36.9016 112.207 39.6184 112.207ZM38.5501 129.055C40.1328 129.055 41.4251 128.527 42.4276 127.473C43.4563 126.391 43.9706 124.955 43.9706 123.162C43.9706 121.369 43.4563 119.945 42.4276 118.891C41.4251 117.809 40.1328 117.269 38.5501 117.269C36.9675 117.269 35.6618 117.809 34.6331 118.891C33.6308 119.945 33.1296 121.369 33.1296 123.162C33.1296 124.955 33.6308 126.391 34.6331 127.473C35.6618 128.527 36.9675 129.055 38.5501 129.055ZM60.2492 115.331C60.9877 114.303 61.9768 113.525 63.2167 112.998C64.4828 112.47 65.9334 112.207 67.5689 112.207V117.902C66.883 117.849 66.4215 117.823 66.1841 117.823C64.417 117.823 63.0322 118.324 62.0297 119.326C61.0273 120.301 60.5262 121.778 60.5262 123.755V133.8H54.3539V112.523H60.2492V115.331ZM71.239 112.523H77.4112V133.8H71.239V112.523ZM74.3251 109.557C73.191 109.557 72.2677 109.227 71.5555 108.568C70.8433 107.909 70.4872 107.092 70.4872 106.116C70.4872 105.141 70.8433 104.323 71.5555 103.664C72.2677 103.005 73.191 102.676 74.3251 102.676C75.4596 102.676 76.3825 102.992 77.0947 103.625C77.8069 104.257 78.163 105.048 78.163 105.998C78.163 107.026 77.8069 107.883 77.0947 108.568C76.3825 109.227 75.4596 109.557 74.3251 109.557ZM96.0779 112.207C98.7155 112.207 100.839 112.998 102.448 114.58C104.083 116.162 104.901 118.508 104.901 121.619V133.8H98.7288V122.569C98.7288 120.881 98.3594 119.629 97.6209 118.811C96.8821 117.968 95.8138 117.546 94.4161 117.546C92.8597 117.546 91.6198 118.034 90.6969 119.009C89.7736 119.958 89.3121 121.382 89.3121 123.28V133.8H83.1398V112.523H89.0351V115.015C89.8527 114.118 90.8681 113.433 92.0817 112.958C93.2949 112.457 94.6269 112.207 96.0779 112.207ZM132.687 112.523V130.241C132.687 134.143 131.671 137.043 129.64 138.942C127.609 140.84 124.642 141.789 120.738 141.789C118.68 141.789 116.729 141.539 114.882 141.038C113.036 140.537 111.506 139.812 110.292 138.863L112.745 134.433C113.643 135.171 114.777 135.752 116.148 136.173C117.52 136.622 118.891 136.846 120.263 136.846C122.4 136.846 123.969 136.358 124.971 135.382C126 134.433 126.514 132.983 126.514 131.032V130.122C124.906 131.889 122.664 132.772 119.788 132.772C117.837 132.772 116.043 132.35 114.407 131.507C112.798 130.637 111.519 129.424 110.569 127.868C109.62 126.312 109.145 124.52 109.145 122.489C109.145 120.459 109.62 118.667 110.569 117.111C111.519 115.555 112.798 114.356 114.407 113.512C116.043 112.642 117.837 112.207 119.788 112.207C122.874 112.207 125.222 113.222 126.831 115.252V112.523H132.687ZM121.015 127.71C122.65 127.71 123.982 127.235 125.011 126.286C126.066 125.311 126.594 124.045 126.594 122.489C126.594 120.934 126.066 119.682 125.011 118.732C123.982 117.757 122.65 117.269 121.015 117.269C119.38 117.269 118.034 117.757 116.979 118.732C115.924 119.682 115.396 120.934 115.396 122.489C115.396 124.045 115.924 125.311 116.979 126.286C118.034 127.235 119.38 127.71 121.015 127.71ZM170.765 112.523L161.15 135.106C160.174 137.558 158.961 139.284 157.51 140.286C156.086 141.288 154.358 141.789 152.327 141.789C151.219 141.789 150.125 141.618 149.043 141.275C147.962 140.932 147.078 140.458 146.392 139.851L148.648 135.461C149.122 135.883 149.663 136.213 150.27 136.45C150.903 136.687 151.523 136.806 152.129 136.806C152.973 136.806 153.659 136.595 154.187 136.173C154.714 135.778 155.189 135.106 155.611 134.156L155.69 133.959L146.472 112.523H152.842L158.816 126.958L164.83 112.523H170.765ZM182.833 134.117C180.591 134.117 178.573 133.656 176.779 132.733C175.012 131.783 173.627 130.478 172.625 128.817C171.622 127.156 171.121 125.271 171.121 123.162C171.121 121.052 171.622 119.167 172.625 117.506C173.627 115.845 175.012 114.553 176.779 113.631C178.573 112.681 180.591 112.207 182.833 112.207C185.075 112.207 187.079 112.681 188.847 113.631C190.614 114.553 191.999 115.845 193.001 117.506C194.003 119.167 194.505 121.052 194.505 123.162C194.505 125.271 194.003 127.156 193.001 128.817C191.999 130.478 190.614 131.783 188.847 132.733C187.079 133.656 185.075 134.117 182.833 134.117ZM182.833 129.055C184.416 129.055 185.708 128.527 186.71 127.473C187.739 126.391 188.253 124.955 188.253 123.162C188.253 121.369 187.739 119.945 186.71 118.891C185.708 117.809 184.416 117.269 182.833 117.269C181.25 117.269 179.945 117.809 178.916 118.891C177.887 119.945 177.373 121.369 177.373 123.162C177.373 124.955 177.887 126.391 178.916 127.473C179.945 128.527 181.25 129.055 182.833 129.055ZM220.075 112.523V133.8H214.219V131.269C213.402 132.192 212.426 132.904 211.292 133.405C210.157 133.88 208.931 134.117 207.612 134.117C204.816 134.117 202.6 133.313 200.965 131.704C199.329 130.096 198.512 127.71 198.512 124.546V112.523H204.684V123.636C204.684 127.064 206.122 128.778 208.997 128.778C210.474 128.778 211.661 128.303 212.558 127.354C213.454 126.379 213.903 124.941 213.903 123.043V112.523H220.075ZM231.689 115.331C232.427 114.303 233.416 113.525 234.656 112.998C235.922 112.47 237.373 112.207 239.008 112.207V117.902C238.322 117.849 237.861 117.823 237.624 117.823C235.856 117.823 234.472 118.324 233.469 119.326C232.467 120.301 231.966 121.778 231.966 123.755V133.8H225.793V112.523H231.689V115.331ZM24.5308 152.505V181.85H18.6355V179.398C17.1056 181.244 14.89 182.167 11.9884 182.167C9.98379 182.167 8.16375 181.718 6.52835 180.822C4.91935 179.926 3.65323 178.647 2.73002 176.986C1.80682 175.325 1.34521 173.4 1.34521 171.212C1.34521 169.023 1.80682 167.099 2.73002 165.438C3.65323 163.777 4.91935 162.498 6.52835 161.601C8.16375 160.705 9.98379 160.257 11.9884 160.257C14.7053 160.257 16.8287 161.113 18.3586 162.827V152.505H24.5308ZM13.0567 177.104C14.613 177.104 15.9055 176.577 16.9342 175.522C17.9629 174.441 18.4773 173.005 18.4773 171.212C18.4773 169.419 17.9629 167.995 16.9342 166.94C15.9055 165.859 14.613 165.319 13.0567 165.319C11.4741 165.319 10.1684 165.859 9.1397 166.94C8.11099 167.995 7.59663 169.419 7.59663 171.212C7.59663 173.005 8.11099 174.441 9.1397 175.522C10.1684 176.577 11.4741 177.104 13.0567 177.104ZM51.0947 171.291C51.0947 171.37 51.0552 171.924 50.976 172.952H34.8727C35.1628 174.27 35.8487 175.311 36.9301 176.076C38.0117 176.841 39.357 177.223 40.9659 177.223C42.0737 177.223 43.0495 177.065 43.8937 176.748C44.7642 176.406 45.5688 175.878 46.3073 175.167L49.5912 178.726C47.5867 181.02 44.6588 182.167 40.8076 182.167C38.4074 182.167 36.2839 181.705 34.4375 180.782C32.591 179.833 31.1667 178.528 30.1644 176.867C29.162 175.206 28.6609 173.321 28.6609 171.212C28.6609 169.129 29.1488 167.257 30.1248 165.596C31.1271 163.908 32.4855 162.603 34.2001 161.68C35.941 160.731 37.8797 160.257 40.0163 160.257C42.1 160.257 43.9862 160.705 45.6742 161.601C47.3622 162.498 48.6812 163.79 49.6308 165.477C50.6066 167.138 51.0947 169.076 51.0947 171.291ZM40.0558 164.923C38.6577 164.923 37.4841 165.319 36.5345 166.11C35.5849 166.901 35.0046 167.982 34.7936 169.353H45.2785C45.0674 168.008 44.4872 166.94 43.5376 166.149C42.5881 165.332 41.4273 164.923 40.0558 164.923ZM62.3655 182.167C60.5983 182.167 58.8704 181.956 57.1823 181.534C55.4943 181.086 54.1491 180.532 53.1466 179.873L55.204 175.443C56.1536 176.05 57.301 176.551 58.6463 176.946C59.9915 177.315 61.3105 177.5 62.6029 177.5C65.2142 177.5 66.5199 176.854 66.5199 175.562C66.5199 174.956 66.1638 174.52 65.4516 174.257C64.7394 173.993 63.6449 173.769 62.1676 173.585C60.4267 173.321 58.9891 173.018 57.855 172.675C56.7209 172.332 55.7317 171.726 54.8875 170.856C54.0699 169.986 53.661 168.746 53.661 167.138C53.661 165.794 54.0433 164.607 54.8084 163.579C55.5997 162.524 56.7338 161.707 58.2111 161.127C59.7146 160.547 61.4817 160.257 63.5129 160.257C65.0164 160.257 66.5066 160.428 67.9838 160.771C69.4873 161.087 70.7272 161.536 71.703 162.115L69.6456 166.505C67.7727 165.451 65.7286 164.923 63.5129 164.923C62.1939 164.923 61.2047 165.108 60.5454 165.477C59.8861 165.846 59.5563 166.321 59.5563 166.901C59.5563 167.56 59.9124 168.022 60.6246 168.285C61.3368 168.549 62.4709 168.799 64.0272 169.036C65.7681 169.327 67.1925 169.643 68.3004 169.986C69.4082 170.302 70.3711 170.895 71.1887 171.765C72.0062 172.635 72.4152 173.848 72.4152 175.404C72.4152 176.722 72.0196 177.895 71.2282 178.924C70.4369 179.952 69.2762 180.756 67.7464 181.336C66.2429 181.89 64.4492 182.167 62.3655 182.167ZM76.2235 160.573H82.3958V181.85H76.2235V160.573ZM79.3097 157.607C78.1752 157.607 77.2522 157.277 76.54 156.618C75.8279 155.959 75.4718 155.142 75.4718 154.166C75.4718 153.191 75.8279 152.373 76.54 151.714C77.2522 151.055 78.1752 150.725 79.3097 150.725C80.4438 150.725 81.3671 151.042 82.0793 151.675C82.7915 152.307 83.1476 153.098 83.1476 154.048C83.1476 155.076 82.7915 155.933 82.0793 156.618C81.3671 157.277 80.4438 157.607 79.3097 157.607ZM110.083 160.573V178.291C110.083 182.193 109.068 185.093 107.036 186.992C105.006 188.89 102.038 189.839 98.1342 189.839C96.0767 189.839 94.1251 189.589 92.2784 189.088C90.4321 188.587 88.9024 187.862 87.6888 186.913L90.1418 182.483C91.0389 183.221 92.173 183.801 93.5445 184.223C94.9164 184.672 96.2879 184.896 97.6594 184.896C99.7959 184.896 101.366 184.408 102.368 183.432C103.396 182.483 103.911 181.033 103.911 179.082V178.172C102.302 179.939 100.06 180.822 97.1846 180.822C95.2329 180.822 93.4391 180.4 91.8036 179.556C90.1947 178.686 88.9153 177.474 87.9657 175.918C87.0161 174.362 86.5414 172.57 86.5414 170.539C86.5414 168.509 87.0161 166.716 87.9657 165.161C88.9153 163.605 90.1947 162.406 91.8036 161.562C93.4391 160.692 95.2329 160.257 97.1846 160.257C100.271 160.257 102.618 161.272 104.227 163.302V160.573H110.083ZM98.4111 175.76C100.047 175.76 101.379 175.285 102.407 174.336C103.463 173.361 103.99 172.095 103.99 170.539C103.99 168.984 103.463 167.731 102.407 166.782C101.379 165.807 100.047 165.319 98.4111 165.319C96.776 165.319 95.4307 165.807 94.3754 166.782C93.3204 167.731 92.7928 168.984 92.7928 170.539C92.7928 172.095 93.3204 173.361 94.3754 174.336C95.4307 175.285 96.776 175.76 98.4111 175.76ZM128.766 160.257C131.404 160.257 133.527 161.048 135.136 162.63C136.772 164.212 137.589 166.558 137.589 169.669V181.85H131.417V170.618C131.417 168.931 131.047 167.679 130.309 166.861C129.571 166.017 128.502 165.596 127.104 165.596C125.548 165.596 124.308 166.084 123.385 167.059C122.462 168.008 122 169.432 122 171.33V181.85H115.828V160.573H121.723V163.065C122.541 162.168 123.557 161.483 124.77 161.008C125.983 160.507 127.315 160.257 128.766 160.257ZM150.346 182.167C148.578 182.167 146.851 181.956 145.163 181.534C143.474 181.086 142.129 180.532 141.127 179.873L143.184 175.443C144.134 176.05 145.281 176.551 146.626 176.946C147.972 177.315 149.29 177.5 150.583 177.5C153.194 177.5 154.5 176.854 154.5 175.562C154.5 174.956 154.144 174.52 153.432 174.257C152.72 173.993 151.625 173.769 150.148 173.585C148.407 173.321 146.969 173.018 145.835 172.675C144.701 172.332 143.712 171.726 142.868 170.856C142.05 169.986 141.641 168.746 141.641 167.138C141.641 165.794 142.023 164.607 142.789 163.579C143.58 162.524 144.714 161.707 146.191 161.127C147.695 160.547 149.462 160.257 151.493 160.257C152.997 160.257 154.487 160.428 155.964 160.771C157.468 161.087 158.707 161.536 159.683 162.115L157.626 166.505C155.753 165.451 153.709 164.923 151.493 164.923C150.174 164.923 149.185 165.108 148.526 165.477C147.866 165.846 147.536 166.321 147.536 166.901C147.536 167.56 147.893 168.022 148.605 168.285C149.317 168.549 150.451 168.799 152.007 169.036C153.748 169.327 155.173 169.643 156.281 169.986C157.388 170.302 158.351 170.895 159.169 171.765C159.986 172.635 160.395 173.848 160.395 175.404C160.395 176.722 160 177.895 159.208 178.924C158.417 179.952 157.256 180.756 155.727 181.336C154.223 181.89 152.429 182.167 150.346 182.167ZM189.138 180.822C188.531 181.27 187.779 181.613 186.883 181.85C186.012 182.061 185.089 182.167 184.113 182.167C181.581 182.167 179.616 181.521 178.218 180.229C176.846 178.937 176.16 177.039 176.16 174.534V165.794H172.876V161.048H176.16V155.867H182.333V161.048H187.634V165.794H182.333V174.455C182.333 175.351 182.557 176.05 183.005 176.551C183.48 177.025 184.139 177.263 184.984 177.263C185.959 177.263 186.79 176.999 187.476 176.472L189.138 180.822ZM202.075 182.167C199.833 182.167 197.815 181.705 196.021 180.782C194.254 179.833 192.869 178.528 191.867 176.867C190.864 175.206 190.363 173.321 190.363 171.212C190.363 169.102 190.864 167.217 191.867 165.556C192.869 163.895 194.254 162.603 196.021 161.68C197.815 160.731 199.833 160.257 202.075 160.257C204.317 160.257 206.321 160.731 208.089 161.68C209.856 162.603 211.241 163.895 212.243 165.556C213.245 167.217 213.747 169.102 213.747 171.212C213.747 173.321 213.245 175.206 212.243 176.867C211.241 178.528 209.856 179.833 208.089 180.782C206.321 181.705 204.317 182.167 202.075 182.167ZM202.075 177.104C203.658 177.104 204.95 176.577 205.952 175.522C206.981 174.441 207.495 173.005 207.495 171.212C207.495 169.419 206.981 167.995 205.952 166.94C204.95 165.859 203.658 165.319 202.075 165.319C200.492 165.319 199.187 165.859 198.158 166.94C197.129 167.995 196.615 169.419 196.615 171.212C196.615 173.005 197.129 174.441 198.158 175.522C199.187 176.577 200.492 177.104 202.075 177.104ZM229.078 152.505H235.25V181.85H229.078V152.505ZM240.978 160.573H247.15V181.85H240.978V160.573ZM244.064 157.607C242.93 157.607 242.007 157.277 241.295 156.618C240.583 155.959 240.226 155.142 240.226 154.166C240.226 153.191 240.583 152.373 241.295 151.714C242.007 151.055 242.93 150.725 244.064 150.725C245.199 150.725 246.122 151.042 246.834 151.675C247.546 152.307 247.902 153.098 247.902 154.048C247.902 155.076 247.546 155.933 246.834 156.618C246.122 157.277 245.199 157.607 244.064 157.607ZM259.645 161.048H265.105V165.794H259.803V181.85H253.631V165.794H250.347V161.048H253.631V160.098C253.631 157.673 254.343 155.748 255.767 154.324C257.218 152.901 259.249 152.189 261.861 152.189C262.784 152.189 263.654 152.294 264.472 152.505C265.316 152.69 266.015 152.966 266.569 153.336L264.947 157.805C264.234 157.304 263.404 157.053 262.454 157.053C260.581 157.053 259.645 158.081 259.645 160.138V161.048ZM288.761 171.291C288.761 171.37 288.721 171.924 288.642 172.952H272.539C272.829 174.27 273.515 175.311 274.596 176.076C275.678 176.841 277.023 177.223 278.632 177.223C279.74 177.223 280.716 177.065 281.56 176.748C282.43 176.406 283.235 175.878 283.973 175.167L287.257 178.726C285.252 181.02 282.325 182.167 278.473 182.167C276.073 182.167 273.95 181.705 272.103 180.782C270.257 179.833 268.833 178.528 267.83 176.867C266.828 175.206 266.327 173.321 266.327 171.212C266.327 169.129 266.815 167.257 267.791 165.596C268.793 163.908 270.152 162.603 271.866 161.68C273.607 160.731 275.546 160.257 277.682 160.257C279.766 160.257 281.652 160.705 283.34 161.601C285.028 162.498 286.347 163.79 287.297 165.477C288.273 167.138 288.761 169.076 288.761 171.291ZM277.722 164.923C276.324 164.923 275.15 165.319 274.2 166.11C273.251 166.901 272.671 167.982 272.459 169.353H282.944C282.734 168.008 282.153 166.94 281.203 166.149C280.254 165.332 279.094 164.923 277.722 164.923ZM295.204 182.167C294.123 182.167 293.213 181.797 292.474 181.059C291.736 180.321 291.366 179.398 291.366 178.291C291.366 177.157 291.736 176.248 292.474 175.562C293.213 174.85 294.123 174.494 295.204 174.494C296.286 174.494 297.196 174.85 297.934 175.562C298.673 176.248 299.042 177.157 299.042 178.291C299.042 179.398 298.673 180.321 297.934 181.059C297.196 181.797 296.286 182.167 295.204 182.167Z"/><path fill="#374B43" d="M226.229 185.805H300.388V187.783H226.229V185.805Z"/><path stroke="#006B65" d="M112.781 106.634C109.823 79.1592 121.841 25.0599 193.577 28.4603"/><path stroke="#006B65" d="M192.191 291.871C164.704 294.828 110.582 282.815 113.984 211.11"/><g filter="url(#filter0_f)"><path fill="#C7C0C0" d="M198.939 32.1565C198.939 17.8672 210.528 6.28345 224.823 6.28345H312.83C327.125 6.28345 338.714 17.8672 338.714 32.1565V37.7007C338.714 51.99 327.125 63.5737 312.83 63.5737H224.823C210.528 63.5737 198.939 51.99 198.939 37.7007V32.1565Z"/></g><path fill="#00BEB2" d="M312.83 1.47852H224.823C210.528 1.47852 198.939 13.0623 198.939 27.3515V32.8958C198.939 47.185 210.528 58.7688 224.823 58.7688H312.83C327.125 58.7688 338.714 47.185 338.714 32.8958V27.3515C338.714 13.0623 327.125 1.47852 312.83 1.47852Z"/><path fill="#FDFDFD" d="M231.085 22.7313L228.122 31.7869H225.87L223.876 25.655L221.819 31.7869H219.58L216.603 22.7313H218.777L220.822 29.0961L222.958 22.7313H224.899L226.97 29.1478L229.079 22.7313H231.085ZM238.416 28.3328C238.416 28.3587 238.403 28.5398 238.377 28.8762H233.109C233.204 29.3074 233.429 29.648 233.782 29.8981C234.136 30.1483 234.576 30.2733 235.102 30.2733C235.465 30.2733 235.784 30.2216 236.06 30.1181C236.345 30.006 236.608 29.8335 236.85 29.6006L237.924 30.7649C237.268 31.5152 236.311 31.8904 235.051 31.8904C234.266 31.8904 233.571 31.7395 232.967 31.4376C232.363 31.1271 231.897 30.7002 231.569 30.1569C231.241 29.6135 231.077 28.9969 231.077 28.307C231.077 27.6256 231.237 27.0133 231.556 26.47C231.884 25.918 232.328 25.4911 232.889 25.1893C233.459 24.8788 234.093 24.7235 234.792 24.7235C235.473 24.7235 236.091 24.8702 236.643 25.1634C237.195 25.4566 237.626 25.8792 237.937 26.4312C238.256 26.9745 238.416 27.6084 238.416 28.3328ZM234.805 26.2501C234.347 26.2501 233.964 26.3794 233.653 26.6381C233.342 26.8969 233.153 27.2505 233.084 27.6989H236.513C236.444 27.2591 236.254 26.9098 235.944 26.6511C235.633 26.3837 235.253 26.2501 234.805 26.2501ZM243.875 24.7235C244.522 24.7235 245.109 24.8745 245.636 25.1763C246.171 25.4695 246.589 25.8878 246.891 26.4312C247.193 26.9659 247.344 27.5911 247.344 28.307C247.344 29.0228 247.193 29.6524 246.891 30.1957C246.589 30.7304 246.171 31.1487 245.636 31.4505C245.109 31.7437 244.522 31.8904 243.875 31.8904C242.918 31.8904 242.188 31.5885 241.688 30.9848V31.7869H239.76V22.188H241.779V25.5644C242.288 25.0038 242.987 24.7235 243.875 24.7235ZM243.526 30.2345C244.044 30.2345 244.466 30.062 244.794 29.717C245.131 29.3634 245.299 28.8934 245.299 28.307C245.299 27.7205 245.131 27.2548 244.794 26.9098C244.466 26.5562 244.044 26.3794 243.526 26.3794C243.008 26.3794 242.581 26.5562 242.245 26.9098C241.917 27.2548 241.753 27.7205 241.753 28.307C241.753 28.8934 241.917 29.3634 242.245 29.717C242.581 30.062 243.008 30.2345 243.526 30.2345ZM252.503 22.7313H256.619C257.602 22.7313 258.469 22.921 259.22 23.3005C259.979 23.6714 260.566 24.1975 260.98 24.8788C261.403 25.5601 261.614 26.3535 261.614 27.2591C261.614 28.1647 261.403 28.9581 260.98 29.6394C260.566 30.3207 259.979 30.8511 259.22 31.2306C258.469 31.6014 257.602 31.7869 256.619 31.7869H252.503V22.7313ZM256.515 30.0663C257.421 30.0663 258.142 29.8162 258.676 29.316C259.22 28.8072 259.492 28.1215 259.492 27.2591C259.492 26.3967 259.22 25.7153 258.676 25.2151C258.142 24.7063 257.421 24.4519 256.515 24.4519H254.6V30.0663H256.515ZM269.874 28.3328C269.874 28.3587 269.861 28.5398 269.835 28.8762H264.567C264.662 29.3074 264.887 29.648 265.24 29.8981C265.594 30.1483 266.034 30.2733 266.56 30.2733C266.923 30.2733 267.242 30.2216 267.518 30.1181C267.803 30.006 268.066 29.8335 268.308 29.6006L269.382 30.7649C268.726 31.5152 267.768 31.8904 266.509 31.8904C265.724 31.8904 265.029 31.7395 264.425 31.4376C263.821 31.1271 263.355 30.7002 263.027 30.1569C262.7 29.6135 262.535 28.9969 262.535 28.307C262.535 27.6256 262.695 27.0133 263.014 26.47C263.342 25.918 263.787 25.4911 264.347 25.1893C264.917 24.8788 265.551 24.7235 266.25 24.7235C266.932 24.7235 267.548 24.8702 268.1 25.1634C268.653 25.4566 269.084 25.8792 269.395 26.4312C269.714 26.9745 269.874 27.6084 269.874 28.3328ZM266.263 26.2501C265.806 26.2501 265.421 26.3794 265.111 26.6381C264.8 26.8969 264.611 27.2505 264.541 27.6989H267.971C267.902 27.2591 267.712 26.9098 267.402 26.6511C267.091 26.3837 266.712 26.2501 266.263 26.2501ZM278.002 24.827L275.064 31.7869H272.981L270.056 24.827H272.14L274.068 29.5618L276.061 24.827H278.002ZM285.457 28.3328C285.457 28.3587 285.444 28.5398 285.418 28.8762H280.151C280.246 29.3074 280.47 29.648 280.824 29.8981C281.178 30.1483 281.618 30.2733 282.144 30.2733C282.507 30.2733 282.826 30.2216 283.102 30.1181C283.387 30.006 283.65 29.8335 283.891 29.6006L284.966 30.7649C284.31 31.5152 283.352 31.8904 282.092 31.8904C281.307 31.8904 280.613 31.7395 280.009 31.4376C279.404 31.1271 278.939 30.7002 278.611 30.1569C278.283 29.6135 278.119 28.9969 278.119 28.307C278.119 27.6256 278.279 27.0133 278.598 26.47C278.926 25.918 279.37 25.4911 279.931 25.1893C280.5 24.8788 281.135 24.7235 281.834 24.7235C282.515 24.7235 283.132 24.8702 283.684 25.1634C284.236 25.4566 284.668 25.8792 284.978 26.4312C285.298 26.9745 285.457 27.6084 285.457 28.3328ZM281.846 26.2501C281.389 26.2501 281.005 26.3794 280.695 26.6381C280.384 26.8969 280.194 27.2505 280.125 27.6989H283.555C283.486 27.2591 283.296 26.9098 282.985 26.6511C282.675 26.3837 282.295 26.2501 281.846 26.2501ZM286.801 22.188H288.82V31.7869H286.801V22.188ZM294.007 31.8904C293.274 31.8904 292.614 31.7395 292.027 31.4376C291.449 31.1271 290.996 30.7002 290.668 30.1569C290.34 29.6135 290.176 28.9969 290.176 28.307C290.176 27.617 290.34 27.0004 290.668 26.457C290.996 25.9137 291.449 25.4911 292.027 25.1893C292.614 24.8788 293.274 24.7235 294.007 24.7235C294.741 24.7235 295.397 24.8788 295.974 25.1893C296.552 25.4911 297.005 25.9137 297.333 26.457C297.661 27.0004 297.825 27.617 297.825 28.307C297.825 28.9969 297.661 29.6135 297.333 30.1569C297.005 30.7002 296.552 31.1271 295.974 31.4376C295.397 31.7395 294.741 31.8904 294.007 31.8904ZM294.007 30.2345C294.525 30.2345 294.948 30.062 295.276 29.717C295.612 29.3634 295.78 28.8934 295.78 28.307C295.78 27.7205 295.612 27.2548 295.276 26.9098C294.948 26.5562 294.525 26.3794 294.007 26.3794C293.49 26.3794 293.062 26.5562 292.726 26.9098C292.389 27.2548 292.221 27.7205 292.221 28.307C292.221 28.8934 292.389 29.3634 292.726 29.717C293.062 30.062 293.49 30.2345 294.007 30.2345ZM303.29 24.7235C303.938 24.7235 304.524 24.8745 305.051 25.1763C305.585 25.4695 306.004 25.8878 306.306 26.4312C306.608 26.9659 306.759 27.5911 306.759 28.307C306.759 29.0228 306.608 29.6524 306.306 30.1957C306.004 30.7304 305.585 31.1487 305.051 31.4505C304.524 31.7437 303.938 31.8904 303.29 31.8904C302.402 31.8904 301.703 31.6101 301.194 31.0495V34.2966H299.175V24.827H301.103V25.6291C301.604 25.0254 302.333 24.7235 303.29 24.7235ZM302.941 30.2345C303.459 30.2345 303.881 30.062 304.209 29.717C304.546 29.3634 304.714 28.8934 304.714 28.307C304.714 27.7205 304.546 27.2548 304.209 26.9098C303.881 26.5562 303.459 26.3794 302.941 26.3794C302.423 26.3794 301.996 26.5562 301.66 26.9098C301.332 27.2548 301.168 27.7205 301.168 28.307C301.168 28.8934 301.332 29.3634 301.66 29.717C301.996 30.062 302.423 30.2345 302.941 30.2345ZM314.931 28.3328C314.931 28.3587 314.918 28.5398 314.892 28.8762H309.625C309.719 29.3074 309.944 29.648 310.298 29.8981C310.651 30.1483 311.091 30.2733 311.618 30.2733C311.98 30.2733 312.299 30.2216 312.576 30.1181C312.86 30.006 313.123 29.8335 313.365 29.6006L314.439 30.7649C313.783 31.5152 312.825 31.8904 311.566 31.8904C310.781 31.8904 310.086 31.7395 309.482 31.4376C308.878 31.1271 308.412 30.7002 308.085 30.1569C307.757 29.6135 307.593 28.9969 307.593 28.307C307.593 27.6256 307.752 27.0133 308.072 26.47C308.399 25.918 308.844 25.4911 309.405 25.1893C309.974 24.8788 310.608 24.7235 311.307 24.7235C311.989 24.7235 312.605 24.8702 313.158 25.1634C313.71 25.4566 314.141 25.8792 314.452 26.4312C314.771 26.9745 314.931 27.6084 314.931 28.3328ZM311.32 26.2501C310.863 26.2501 310.479 26.3794 310.168 26.6381C309.858 26.8969 309.668 27.2505 309.599 27.6989H313.028C312.959 27.2591 312.77 26.9098 312.459 26.6511C312.148 26.3837 311.769 26.2501 311.32 26.2501ZM318.203 25.7455C318.445 25.4092 318.769 25.1548 319.174 24.9823C319.588 24.8098 320.063 24.7235 320.598 24.7235V26.5864C320.373 26.5691 320.222 26.5605 320.145 26.5605C319.567 26.5605 319.114 26.7244 318.786 27.0521C318.458 27.3712 318.294 27.8542 318.294 28.501V31.7869H316.275V24.827H318.203V25.7455Z"/><path fill="#005A55" d="M225.64 43.6146L224.22 41.6186C224.06 41.6364 223.894 41.6453 223.723 41.6453H222.054V43.6146H221.398V37.405H223.723C224.516 37.405 225.137 37.5943 225.587 37.9728C226.036 38.3513 226.261 38.8717 226.261 39.534C226.261 40.019 226.137 40.43 225.888 40.7671C225.646 41.0982 225.297 41.3377 224.841 41.4856L226.359 43.6146H225.64ZM223.705 41.0864C224.32 41.0864 224.791 40.9504 225.116 40.6783C225.442 40.4063 225.604 40.0249 225.604 39.534C225.604 39.0313 225.442 38.6469 225.116 38.3808C224.791 38.1088 224.32 37.9728 223.705 37.9728H222.054V41.0864H223.705ZM231.743 41.4767H227.838C227.873 41.9616 228.06 42.3549 228.397 42.6565C228.734 42.9522 229.16 43.1001 229.675 43.1001C229.965 43.1001 230.231 43.0498 230.473 42.9493C230.716 42.8428 230.926 42.689 231.104 42.488L231.459 42.896C231.251 43.1444 230.991 43.3337 230.678 43.4638C230.37 43.5939 230.03 43.6589 229.657 43.6589C229.178 43.6589 228.752 43.5584 228.379 43.3573C228.012 43.1503 227.725 42.8665 227.518 42.5057C227.311 42.145 227.208 41.7369 227.208 41.2816C227.208 40.8262 227.305 40.4181 227.5 40.0574C227.702 39.6967 227.974 39.4157 228.317 39.2147C228.666 39.0136 229.056 38.9131 229.488 38.9131C229.92 38.9131 230.308 39.0136 230.651 39.2147C230.994 39.4157 231.263 39.6967 231.459 40.0574C231.654 40.4122 231.751 40.8203 231.751 41.2816L231.743 41.4767ZM229.488 39.4542C229.039 39.4542 228.66 39.5991 228.352 39.8888C228.051 40.1727 227.879 40.5453 227.838 41.0066H231.148C231.107 40.5453 230.932 40.1727 230.624 39.8888C230.323 39.5991 229.944 39.4542 229.488 39.4542ZM234.537 38.9131C235.146 38.9131 235.614 39.0668 235.939 39.3743C236.264 39.676 236.427 40.1254 236.427 40.7227V43.6146H235.824V42.8872C235.682 43.1296 235.472 43.3189 235.194 43.4549C234.921 43.5909 234.596 43.6589 234.217 43.6589C233.697 43.6589 233.283 43.5347 232.975 43.2863C232.667 43.038 232.514 42.7097 232.514 42.3017C232.514 41.9055 232.655 41.5861 232.939 41.3437C233.229 41.1012 233.688 40.98 234.315 40.98H235.797V40.6961C235.797 40.2939 235.685 39.9894 235.46 39.7824C235.235 39.5695 234.907 39.4631 234.475 39.4631C234.179 39.4631 233.895 39.5133 233.623 39.6139C233.351 39.7085 233.117 39.8415 232.922 40.013L232.638 39.5429C232.874 39.3418 233.158 39.1881 233.49 39.0816C233.821 38.9692 234.17 38.9131 234.537 38.9131ZM234.315 43.1622C234.67 43.1622 234.975 43.0823 235.229 42.9226C235.484 42.7571 235.673 42.5205 235.797 42.213V41.4501H234.333C233.534 41.4501 233.135 41.7281 233.135 42.284C233.135 42.556 233.238 42.7718 233.445 42.9315C233.652 43.0853 233.942 43.1622 234.315 43.1622ZM240.091 43.6589C239.629 43.6589 239.215 43.5584 238.848 43.3573C238.487 43.1562 238.203 42.8753 237.996 42.5146C237.789 42.1479 237.686 41.7369 237.686 41.2816C237.686 40.8262 237.789 40.4181 237.996 40.0574C238.203 39.6967 238.487 39.4157 238.848 39.2147C239.215 39.0136 239.629 38.9131 240.091 38.9131C240.493 38.9131 240.851 38.9929 241.164 39.1526C241.484 39.3063 241.735 39.534 241.919 39.8356L241.448 40.155C241.295 39.9243 241.099 39.7528 240.863 39.6405C240.626 39.5222 240.369 39.4631 240.091 39.4631C239.753 39.4631 239.449 39.5399 239.176 39.6937C238.91 39.8415 238.7 40.0544 238.546 40.3324C238.398 40.6103 238.325 40.9267 238.325 41.2816C238.325 41.6423 238.398 41.9616 238.546 42.2396C238.7 42.5116 238.91 42.7245 239.176 42.8783C239.449 43.0261 239.753 43.1001 240.091 43.1001C240.369 43.1001 240.626 43.0439 240.863 42.9315C241.099 42.8192 241.295 42.6477 241.448 42.417L241.919 42.7364C241.735 43.038 241.484 43.2686 241.164 43.4283C240.845 43.582 240.487 43.6589 240.091 43.6589ZM245.667 43.3307C245.548 43.4371 245.401 43.5199 245.223 43.5791C245.051 43.6323 244.871 43.6589 244.682 43.6589C244.244 43.6589 243.907 43.5406 243.67 43.3041C243.433 43.0675 243.315 42.7334 243.315 42.3017V39.4808H242.481V38.9486H243.315V37.9284H243.945V38.9486H245.365V39.4808H243.945V42.2662C243.945 42.5442 244.013 42.7571 244.149 42.9049C244.291 43.0468 244.492 43.1178 244.753 43.1178C244.883 43.1178 245.007 43.0971 245.125 43.0557C245.25 43.0143 245.356 42.9552 245.445 42.8783L245.667 43.3307ZM246.971 42.692C247.107 42.692 247.22 42.7393 247.309 42.8339C247.397 42.9226 247.442 43.035 247.442 43.171C247.442 43.242 247.43 43.3189 247.406 43.4017C247.388 43.4845 247.359 43.5791 247.317 43.6855L246.945 44.9097H246.519L246.82 43.6234C246.726 43.5939 246.649 43.5406 246.59 43.4638C246.531 43.381 246.501 43.2834 246.501 43.171C246.501 43.035 246.545 42.9226 246.634 42.8339C246.723 42.7393 246.835 42.692 246.971 42.692ZM252.949 43.6678C252.488 43.6678 252.044 43.5939 251.618 43.446C251.198 43.2982 250.873 43.103 250.642 42.8605L250.899 42.3549C251.124 42.5796 251.423 42.763 251.796 42.9049C252.169 43.0409 252.553 43.1089 252.949 43.1089C253.506 43.1089 253.923 43.0084 254.201 42.8073C254.479 42.6003 254.618 42.3342 254.618 42.009C254.618 41.7606 254.541 41.5625 254.387 41.4146C254.239 41.2668 254.056 41.1544 253.837 41.0775C253.618 40.9947 253.313 40.906 252.923 40.8114C252.455 40.6931 252.083 40.5808 251.805 40.4743C251.527 40.362 251.287 40.1934 251.086 39.9687C250.891 39.744 250.793 39.4394 250.793 39.055C250.793 38.7416 250.876 38.4577 251.041 38.2034C251.207 37.9432 251.462 37.7362 251.805 37.5825C252.148 37.4287 252.574 37.3518 253.083 37.3518C253.438 37.3518 253.784 37.4021 254.121 37.5026C254.464 37.5972 254.76 37.7303 255.008 37.9018L254.787 38.4252C254.526 38.2537 254.248 38.1265 253.952 38.0437C253.657 37.955 253.367 37.9107 253.083 37.9107C252.538 37.9107 252.127 38.0171 251.849 38.23C251.577 38.437 251.441 38.7061 251.441 39.0373C251.441 39.2856 251.515 39.4867 251.663 39.6405C251.816 39.7883 252.006 39.9036 252.231 39.9864C252.461 40.0633 252.769 40.1491 253.154 40.2437C253.609 40.356 253.976 40.4684 254.254 40.5808C254.538 40.6872 254.778 40.8528 254.973 41.0775C255.168 41.2963 255.266 41.595 255.266 41.9735C255.266 42.2869 255.18 42.5737 255.008 42.8339C254.843 43.0882 254.585 43.2923 254.236 43.446C253.887 43.5939 253.458 43.6678 252.949 43.6678ZM260.4 38.9486L258.323 43.6146H257.675L255.607 38.9486H256.264L258.012 42.9226L259.778 38.9486H260.4ZM265.222 41.4767H261.317C261.352 41.9616 261.539 42.3549 261.876 42.6565C262.213 42.9522 262.639 43.1001 263.154 43.1001C263.444 43.1001 263.71 43.0498 263.952 42.9493C264.195 42.8428 264.405 42.689 264.583 42.488L264.938 42.896C264.731 43.1444 264.47 43.3337 264.157 43.4638C263.849 43.5939 263.509 43.6589 263.136 43.6589C262.657 43.6589 262.231 43.5584 261.858 43.3573C261.491 43.1503 261.204 42.8665 260.997 42.5057C260.79 42.145 260.687 41.7369 260.687 41.2816C260.687 40.8262 260.784 40.4181 260.98 40.0574C261.181 39.6967 261.453 39.4157 261.796 39.2147C262.145 39.0136 262.536 38.9131 262.967 38.9131C263.399 38.9131 263.787 39.0136 264.13 39.2147C264.473 39.4157 264.742 39.6967 264.938 40.0574C265.133 40.4122 265.23 40.8203 265.23 41.2816L265.222 41.4767ZM262.967 39.4542C262.518 39.4542 262.139 39.5991 261.831 39.8888C261.53 40.1727 261.358 40.5453 261.317 41.0066H264.627C264.586 40.5453 264.411 40.1727 264.103 39.8888C263.802 39.5991 263.423 39.4542 262.967 39.4542ZM266.513 37.0325H267.143V43.6146H266.513V37.0325ZM271.372 43.3307C271.253 43.4371 271.105 43.5199 270.928 43.5791C270.756 43.6323 270.576 43.6589 270.387 43.6589C269.949 43.6589 269.612 43.5406 269.375 43.3041C269.138 43.0675 269.02 42.7334 269.02 42.3017V39.4808H268.186V38.9486H269.02V37.9284H269.65V38.9486H271.07V39.4808H269.65V42.2662C269.65 42.5442 269.718 42.7571 269.854 42.9049C269.996 43.0468 270.197 43.1178 270.458 43.1178C270.588 43.1178 270.712 43.0971 270.83 43.0557C270.955 43.0143 271.061 42.9552 271.15 42.8783L271.372 43.3307ZM276.419 41.4767H272.514C272.549 41.9616 272.736 42.3549 273.073 42.6565C273.41 42.9522 273.836 43.1001 274.351 43.1001C274.641 43.1001 274.907 43.0498 275.15 42.9493C275.392 42.8428 275.602 42.689 275.78 42.488L276.135 42.896C275.928 43.1444 275.667 43.3337 275.354 43.4638C275.046 43.5939 274.706 43.6589 274.333 43.6589C273.854 43.6589 273.428 43.5584 273.055 43.3573C272.688 43.1503 272.401 42.8665 272.194 42.5057C271.987 42.145 271.884 41.7369 271.884 41.2816C271.884 40.8262 271.981 40.4181 272.177 40.0574C272.378 39.6967 272.65 39.4157 272.993 39.2147C273.342 39.0136 273.733 38.9131 274.165 38.9131C274.596 38.9131 274.984 39.0136 275.327 39.2147C275.67 39.4157 275.939 39.6967 276.135 40.0574C276.33 40.4122 276.428 40.8203 276.428 41.2816L276.419 41.4767ZM274.165 39.4542C273.715 39.4542 273.336 39.5991 273.029 39.8888C272.727 40.1727 272.555 40.5453 272.514 41.0066H275.824C275.783 40.5453 275.608 40.1727 275.301 39.8888C274.999 39.5991 274.62 39.4542 274.165 39.4542ZM277.781 42.692C277.917 42.692 278.029 42.7393 278.118 42.8339C278.207 42.9226 278.251 43.035 278.251 43.171C278.251 43.242 278.24 43.3189 278.216 43.4017C278.198 43.4845 278.168 43.5791 278.127 43.6855L277.754 44.9097H277.328L277.63 43.6234C277.535 43.5939 277.459 43.5406 277.399 43.4638C277.34 43.381 277.311 43.2834 277.311 43.171C277.311 43.035 277.355 42.9226 277.444 42.8339C277.532 42.7393 277.645 42.692 277.781 42.692ZM285.943 41.9557H282.482L281.736 43.6146H281.053L283.893 37.405H284.54L287.38 43.6146H286.688L285.943 41.9557ZM285.703 41.4235L284.212 38.0881L282.721 41.4235H285.703ZM290.653 38.9131C291.239 38.9131 291.703 39.0846 292.047 39.4276C292.396 39.7647 292.57 40.2585 292.57 40.909V43.6146H291.94V40.9711C291.94 40.4861 291.819 40.1165 291.576 39.8622C291.334 39.6079 290.988 39.4808 290.538 39.4808C290.035 39.4808 289.636 39.6316 289.34 39.9332C289.05 40.2289 288.905 40.6399 288.905 41.1662V43.6146H288.275V38.9486H288.878V39.809C289.05 39.5252 289.287 39.3063 289.588 39.1526C289.896 38.9929 290.251 38.9131 290.653 38.9131ZM298.62 38.9486V43.0468C298.62 43.8393 298.425 44.4248 298.034 44.8032C297.65 45.1876 297.067 45.3798 296.286 45.3798C295.854 45.3798 295.443 45.3148 295.052 45.1847C294.668 45.0605 294.354 44.886 294.112 44.6613L294.431 44.1823C294.656 44.3834 294.928 44.5401 295.248 44.6524C295.573 44.7648 295.913 44.821 296.268 44.821C296.86 44.821 297.295 44.682 297.573 44.4041C297.851 44.132 297.99 43.7062 297.99 43.1267V42.5323C297.795 42.828 297.537 43.0527 297.218 43.2065C296.904 43.3603 296.555 43.4371 296.171 43.4371C295.733 43.4371 295.333 43.3425 294.973 43.1533C294.618 42.9581 294.337 42.689 294.129 42.346C293.928 41.9971 293.828 41.6039 293.828 41.1662C293.828 40.7286 293.928 40.3383 294.129 39.9953C294.337 39.6523 294.618 39.3862 294.973 39.1969C295.328 39.0077 295.727 38.9131 296.171 38.9131C296.567 38.9131 296.925 38.9929 297.244 39.1526C297.564 39.3123 297.821 39.5429 298.017 39.8445V38.9486H298.62ZM296.233 42.8783C296.57 42.8783 296.875 42.8073 297.147 42.6654C297.419 42.5175 297.629 42.3135 297.777 42.0533C297.931 41.7931 298.008 41.4974 298.008 41.1662C298.008 40.8351 297.931 40.5423 297.777 40.288C297.629 40.0278 297.419 39.8268 297.147 39.6848C296.881 39.537 296.576 39.4631 296.233 39.4631C295.896 39.4631 295.591 39.534 295.319 39.676C295.052 39.8179 294.842 40.019 294.689 40.2792C294.541 40.5394 294.467 40.8351 294.467 41.1662C294.467 41.4974 294.541 41.7931 294.689 42.0533C294.842 42.3135 295.052 42.5175 295.319 42.6654C295.591 42.8073 295.896 42.8783 296.233 42.8783ZM304.589 38.9486V43.6146H303.985V42.763C303.819 43.0468 303.592 43.2686 303.302 43.4283C303.012 43.582 302.681 43.6589 302.308 43.6589C301.698 43.6589 301.216 43.4904 300.861 43.1533C300.512 42.8103 300.338 42.3106 300.338 41.6541V38.9486H300.968V41.592C300.968 42.0829 301.089 42.4555 301.332 42.7097C301.574 42.964 301.92 43.0912 302.37 43.0912C302.861 43.0912 303.248 42.9433 303.532 42.6477C303.816 42.346 303.958 41.9291 303.958 41.3969V38.9486H304.589ZM306.353 37.0325H306.983V43.6146H306.353V37.0325ZM310.37 38.9131C310.979 38.9131 311.446 39.0668 311.772 39.3743C312.097 39.676 312.26 40.1254 312.26 40.7227V43.6146H311.656V42.8872C311.514 43.1296 311.304 43.3189 311.026 43.4549C310.754 43.5909 310.429 43.6589 310.05 43.6589C309.529 43.6589 309.115 43.5347 308.808 43.2863C308.5 43.038 308.346 42.7097 308.346 42.3017C308.346 41.9055 308.488 41.5861 308.772 41.3437C309.062 41.1012 309.521 40.98 310.148 40.98H311.63V40.6961C311.63 40.2939 311.517 39.9894 311.293 39.7824C311.068 39.5695 310.739 39.4631 310.307 39.4631C310.012 39.4631 309.728 39.5133 309.456 39.6139C309.183 39.7085 308.95 39.8415 308.754 40.013L308.47 39.5429C308.707 39.3418 308.991 39.1881 309.322 39.0816C309.654 38.9692 310.003 38.9131 310.37 38.9131ZM310.148 43.1622C310.503 43.1622 310.807 43.0823 311.062 42.9226C311.316 42.7571 311.506 42.5205 311.63 42.213V41.4501H310.165C309.367 41.4501 308.967 41.7281 308.967 42.284C308.967 42.556 309.071 42.7718 309.278 42.9315C309.485 43.0853 309.775 43.1622 310.148 43.1622ZM314.575 39.8622C314.723 39.5488 314.942 39.3123 315.231 39.1526C315.527 38.9929 315.891 38.9131 316.323 38.9131V39.5251L316.172 39.5163C315.681 39.5163 315.297 39.6671 315.018 39.9687C314.74 40.2703 314.601 40.6931 314.601 41.2372V43.6146H313.971V38.9486H314.575V39.8622Z"/><g filter="url(#filter1_f)"><path fill="#C7C0C0" d="M198.939 288.299C198.939 274.01 210.528 262.426 224.823 262.426H312.83C327.125 262.426 338.714 274.01 338.714 288.299V293.844C338.714 308.133 327.125 319.717 312.83 319.717H224.823C210.528 319.717 198.939 308.133 198.939 293.844V288.299Z"/></g><path fill="#00BEB2" d="M312.83 257.621H224.823C210.528 257.621 198.939 269.205 198.939 283.494V289.039C198.939 303.328 210.528 314.912 224.823 314.912H312.83C327.125 314.912 338.714 303.328 338.714 289.039V283.494C338.714 269.205 327.125 257.621 312.83 257.621Z"/><path fill="#FDFDFD" d="M243.277 277.396H247.392C248.376 277.396 249.243 277.585 249.994 277.965C250.753 278.336 251.34 278.862 251.754 279.543C252.176 280.224 252.388 281.018 252.388 281.923C252.388 282.829 252.176 283.623 251.754 284.304C251.34 284.985 250.753 285.515 249.994 285.895C249.243 286.266 248.376 286.451 247.392 286.451H243.277V277.396ZM247.289 284.731C248.195 284.731 248.915 284.48 249.45 283.98C249.994 283.471 250.265 282.786 250.265 281.923C250.265 281.061 249.994 280.38 249.45 279.88C248.915 279.371 248.195 279.116 247.289 279.116H245.373V284.731H247.289ZM260.647 282.997C260.647 283.023 260.634 283.204 260.608 283.541H255.341C255.436 283.972 255.66 284.312 256.014 284.563C256.368 284.813 256.808 284.938 257.334 284.938C257.696 284.938 258.015 284.886 258.292 284.782C258.576 284.67 258.84 284.498 259.081 284.265L260.155 285.429C259.5 286.18 258.542 286.555 257.282 286.555C256.497 286.555 255.802 286.404 255.199 286.102C254.595 285.791 254.129 285.365 253.801 284.821C253.473 284.278 253.309 283.661 253.309 282.971C253.309 282.29 253.469 281.678 253.788 281.134C254.116 280.583 254.56 280.156 255.121 279.854C255.69 279.543 256.324 279.388 257.023 279.388C257.705 279.388 258.322 279.535 258.874 279.828C259.426 280.121 259.858 280.544 260.168 281.096C260.487 281.639 260.647 282.273 260.647 282.997ZM257.036 280.914C256.579 280.914 256.195 281.044 255.884 281.303C255.574 281.561 255.384 281.915 255.315 282.363H258.745C258.676 281.923 258.486 281.574 258.175 281.315C257.865 281.048 257.485 280.914 257.036 280.914ZM268.776 279.491L265.838 286.451H263.754L260.829 279.491H262.913L264.842 284.226L266.835 279.491H268.776ZM274.079 286.606C273.139 286.606 272.289 286.404 271.53 285.998C270.779 285.593 270.188 285.037 269.757 284.33C269.334 283.614 269.122 282.812 269.122 281.923C269.122 281.035 269.334 280.237 269.757 279.53C270.188 278.814 270.779 278.254 271.53 277.848C272.289 277.443 273.139 277.24 274.079 277.24C275.02 277.24 275.865 277.443 276.616 277.848C277.367 278.254 277.957 278.814 278.389 279.53C278.82 280.237 279.036 281.035 279.036 281.923C279.036 282.812 278.82 283.614 278.389 284.33C277.957 285.037 277.367 285.593 276.616 285.998C275.865 286.404 275.02 286.606 274.079 286.606ZM274.079 284.821C274.614 284.821 275.097 284.7 275.529 284.459C275.96 284.209 276.296 283.864 276.538 283.424C276.788 282.984 276.914 282.484 276.914 281.923C276.914 281.363 276.788 280.863 276.538 280.423C276.296 279.983 275.96 279.642 275.529 279.401C275.097 279.151 274.614 279.026 274.079 279.026C273.544 279.026 273.061 279.151 272.63 279.401C272.198 279.642 271.857 279.983 271.607 280.423C271.365 280.863 271.245 281.363 271.245 281.923C271.245 282.484 271.365 282.984 271.607 283.424C271.857 283.864 272.198 284.209 272.63 284.459C273.061 284.7 273.544 284.821 274.079 284.821ZM284.585 279.388C285.232 279.388 285.818 279.539 286.345 279.841C286.88 280.134 287.298 280.552 287.6 281.096C287.902 281.63 288.053 282.255 288.053 282.971C288.053 283.687 287.902 284.317 287.6 284.86C287.298 285.395 286.88 285.813 286.345 286.115C285.818 286.408 285.232 286.555 284.585 286.555C283.696 286.555 282.997 286.275 282.488 285.714V288.961H280.469V279.491H282.398V280.293C282.898 279.69 283.627 279.388 284.585 279.388ZM284.235 284.899C284.753 284.899 285.176 284.726 285.504 284.381C285.84 284.028 286.009 283.558 286.009 282.971C286.009 282.385 285.84 281.919 285.504 281.574C285.176 281.22 284.753 281.044 284.235 281.044C283.718 281.044 283.291 281.22 282.954 281.574C282.626 281.919 282.462 282.385 282.462 282.971C282.462 283.558 282.626 284.028 282.954 284.381C283.291 284.726 283.718 284.899 284.235 284.899ZM291.747 286.555C291.169 286.555 290.604 286.486 290.052 286.348C289.5 286.201 289.06 286.02 288.732 285.804L289.405 284.356C289.716 284.554 290.091 284.718 290.531 284.847C290.971 284.968 291.402 285.028 291.825 285.028C292.679 285.028 293.106 284.817 293.106 284.394C293.106 284.196 292.99 284.054 292.757 283.967C292.524 283.881 292.166 283.808 291.683 283.748C291.113 283.661 290.643 283.562 290.272 283.45C289.901 283.338 289.578 283.14 289.301 282.855C289.034 282.57 288.9 282.165 288.9 281.639C288.9 281.199 289.025 280.811 289.275 280.475C289.534 280.13 289.905 279.862 290.389 279.673C290.88 279.483 291.458 279.388 292.123 279.388C292.615 279.388 293.102 279.444 293.585 279.556C294.077 279.66 294.483 279.806 294.802 279.996L294.129 281.432C293.516 281.087 292.848 280.914 292.123 280.914C291.691 280.914 291.368 280.975 291.152 281.096C290.937 281.216 290.829 281.372 290.829 281.561C290.829 281.777 290.945 281.928 291.178 282.014C291.411 282.1 291.782 282.182 292.291 282.26C292.86 282.355 293.326 282.458 293.689 282.57C294.051 282.674 294.366 282.868 294.634 283.152C294.901 283.437 295.035 283.834 295.035 284.343C295.035 284.774 294.905 285.158 294.646 285.494C294.388 285.83 294.008 286.093 293.508 286.283C293.016 286.464 292.429 286.555 291.747 286.555Z"/><path fill="#005A55" d="M246.74 294.033H243.279L242.534 295.692H241.851L244.69 289.482H245.338L248.178 295.692H247.486L246.74 294.033ZM246.501 293.501L245.01 290.165L243.519 293.501H246.501ZM257.414 289.482L255.319 295.692H254.627L252.808 290.396L250.98 295.692H250.296L248.202 289.482H248.876L250.669 294.822L252.524 289.482H253.136L254.964 294.849L256.784 289.482H257.414ZM260.33 295.745C259.869 295.745 259.425 295.671 258.999 295.523C258.579 295.375 258.254 295.18 258.023 294.938L258.28 294.432C258.505 294.657 258.804 294.84 259.177 294.982C259.55 295.118 259.934 295.186 260.33 295.186C260.887 295.186 261.304 295.085 261.582 294.884C261.86 294.677 261.999 294.411 261.999 294.086C261.999 293.838 261.922 293.639 261.768 293.492C261.62 293.344 261.437 293.231 261.218 293.155C260.999 293.072 260.694 292.983 260.304 292.888C259.836 292.77 259.464 292.658 259.186 292.551C258.908 292.439 258.668 292.27 258.467 292.046C258.272 291.821 258.174 291.516 258.174 291.132C258.174 290.819 258.257 290.535 258.422 290.28C258.588 290.02 258.842 289.813 259.186 289.659C259.529 289.506 259.955 289.429 260.464 289.429C260.819 289.429 261.165 289.479 261.502 289.58C261.845 289.674 262.141 289.807 262.389 289.979L262.168 290.502C261.907 290.331 261.629 290.204 261.333 290.121C261.037 290.032 260.748 289.988 260.464 289.988C259.919 289.988 259.508 290.094 259.23 290.307C258.958 290.514 258.822 290.783 258.822 291.114C258.822 291.363 258.896 291.564 259.044 291.717C259.197 291.865 259.387 291.981 259.612 292.063C259.842 292.14 260.15 292.226 260.535 292.321C260.99 292.433 261.357 292.545 261.635 292.658C261.919 292.764 262.159 292.93 262.354 293.155C262.549 293.373 262.647 293.672 262.647 294.05C262.647 294.364 262.561 294.651 262.389 294.911C262.224 295.165 261.966 295.369 261.617 295.523C261.268 295.671 260.839 295.745 260.33 295.745ZM264.189 294.769C264.325 294.769 264.438 294.816 264.526 294.911C264.615 295 264.659 295.112 264.659 295.248C264.659 295.319 264.648 295.396 264.624 295.479C264.606 295.561 264.577 295.656 264.535 295.763L264.162 296.987H263.736L264.038 295.7C263.944 295.671 263.867 295.618 263.807 295.541C263.748 295.458 263.719 295.36 263.719 295.248C263.719 295.112 263.763 295 263.852 294.911C263.941 294.816 264.053 294.769 264.189 294.769ZM272.35 294.033H268.889L268.144 295.692H267.46L270.3 289.482H270.948L273.788 295.692H273.096L272.35 294.033ZM272.111 293.501L270.62 290.165L269.129 293.501H272.111ZM277.967 295.168V295.692H274.168V295.275L277.106 291.558H274.221V291.026H277.913V291.442L274.976 295.168H277.967ZM283.413 291.026V295.692H282.809V294.84C282.644 295.124 282.416 295.346 282.126 295.505C281.836 295.659 281.505 295.736 281.132 295.736C280.523 295.736 280.041 295.567 279.686 295.23C279.337 294.887 279.162 294.388 279.162 293.731V291.026H279.792V293.669C279.792 294.16 279.913 294.532 280.156 294.787C280.399 295.041 280.745 295.168 281.194 295.168C281.685 295.168 282.073 295.02 282.357 294.725C282.641 294.423 282.783 294.006 282.783 293.474V291.026H283.413ZM285.781 291.939C285.929 291.626 286.148 291.389 286.438 291.23C286.734 291.07 287.098 290.99 287.53 290.99V291.602L287.379 291.593C286.888 291.593 286.503 291.744 286.225 292.046C285.947 292.347 285.808 292.77 285.808 293.314V295.692H285.178V291.026H285.781V291.939ZM292.692 293.554H288.787C288.822 294.039 289.009 294.432 289.346 294.734C289.683 295.029 290.109 295.177 290.624 295.177C290.914 295.177 291.18 295.127 291.423 295.026C291.665 294.92 291.875 294.766 292.053 294.565L292.408 294.973C292.201 295.221 291.94 295.411 291.627 295.541C291.319 295.671 290.979 295.736 290.606 295.736C290.127 295.736 289.701 295.635 289.328 295.434C288.961 295.227 288.674 294.943 288.467 294.583C288.26 294.222 288.157 293.814 288.157 293.359C288.157 292.903 288.254 292.495 288.45 292.134C288.651 291.774 288.923 291.493 289.266 291.292C289.615 291.091 290.006 290.99 290.438 290.99C290.869 290.99 291.257 291.091 291.6 291.292C291.943 291.493 292.212 291.774 292.408 292.134C292.603 292.489 292.701 292.897 292.701 293.359L292.692 293.554ZM290.438 291.531C289.988 291.531 289.609 291.676 289.302 291.966C289 292.25 288.828 292.622 288.787 293.084H292.097C292.056 292.622 291.881 292.25 291.574 291.966C291.272 291.676 290.893 291.531 290.438 291.531Z"/></g><defs><filter id="filter0_f" width="173.775" height="91.29" x="181.939" y="-10.717" color-interpolation-filters="sRGB" filterUnits="userSpaceOnUse"><feFlood flood-opacity="0" result="BackgroundImageFix"/><feBlend in="SourceGraphic" in2="BackgroundImageFix" mode="normal" result="shape"/><feGaussianBlur result="effect1_foregroundBlur" stdDeviation="8.5"/></filter><filter id="filter1_f" width="173.775" height="91.29" x="181.939" y="245.426" color-interpolation-filters="sRGB" filterUnits="userSpaceOnUse"><feFlood flood-opacity="0" result="BackgroundImageFix"/><feBlend in="SourceGraphic" in2="BackgroundImageFix" mode="normal" result="shape"/><feGaussianBlur result="effect1_foregroundBlur" stdDeviation="8.5"/></filter><clipPath id="clip0"><rect width="345" height="326" fill="#fff"/></clipPath></defs></svg>