<svg xmlns="http://www.w3.org/2000/svg" width="56" height="56" fill="none" viewBox="0 0 56 56"><path fill="#3C3C3C" fill-opacity=".78" fill-rule="evenodd" d="M0.500001 5.09501C0.500001 3.87634 0.984115 2.70758 1.84585 1.84585C2.70757 0.984121 3.87633 0.500006 5.095 0.500006H50.9C51.5039 0.49902 52.1021 0.617163 52.6604 0.847673C53.2186 1.07818 53.7258 1.41653 54.1531 1.84335C54.5804 2.27016 54.9193 2.77707 55.1504 3.33503C55.3815 3.893 55.5003 4.49107 55.5 5.09501V50.9C55.5007 51.5041 55.3822 52.1023 55.1514 52.6606C54.9206 53.2188 54.5821 53.726 54.155 54.1533C53.728 54.5805 53.221 54.9194 52.6629 55.1505C52.1048 55.3816 51.5066 55.5003 50.9025 55.5H5.095C4.49137 55.5 3.89365 55.3811 3.33599 55.15C2.77834 54.9189 2.27168 54.5802 1.84496 54.1533C1.41824 53.7263 1.07983 53.2195 0.849057 52.6617C0.618283 52.1039 0.499672 51.5061 0.500001 50.9025V5.09501ZM22.27 21.47H29.7175V25.21C30.7925 23.06 33.5425 21.125 37.675 21.125C45.5975 21.125 47.475 25.4075 47.475 33.265V47.82H39.4575V35.055C39.4575 30.58 38.3825 28.055 35.6525 28.055C31.865 28.055 30.29 30.7775 30.29 35.055V47.82H22.27V21.47ZM8.52 47.4775H16.54V21.125H8.52V47.475V47.4775ZM17.6875 12.53C17.7026 13.2167 17.5804 13.8995 17.3281 14.5383C17.0758 15.1771 16.6984 15.7591 16.2181 16.2501C15.7378 16.7411 15.1642 17.1312 14.5311 17.3975C13.898 17.6639 13.2181 17.8011 12.5313 17.8011C11.8444 17.8011 11.1645 17.6639 10.5314 17.3975C9.89826 17.1312 9.32472 16.7411 8.84442 16.2501C8.36412 15.7591 7.98673 15.1771 7.7344 14.5383C7.48207 13.8995 7.35988 13.2167 7.375 12.53C7.40468 11.1821 7.96096 9.89948 8.92472 8.95672C9.88847 8.01396 11.1831 7.48605 12.5313 7.48605C13.8794 7.48605 15.174 8.01396 16.1378 8.95672C17.1015 9.89948 17.6578 11.1821 17.6875 12.53Z" clip-rule="evenodd"/></svg>