<svg width="127" height="42" viewBox="0 0 127 42" fill="none" xmlns="http://www.w3.org/2000/svg">
<path d="M26.0074 27.588V33H0.915422V28.695L16.6594 9.712H1.24342V4.3H25.3924V8.605L9.68942 27.588H26.0074ZM29.8163 10.942H36.2123V33H29.8163V10.942ZM33.0143 7.867C31.8389 7.867 30.8823 7.52533 30.1443 6.842C29.4063 6.15867 29.0373 5.31133 29.0373 4.3C29.0373 3.28866 29.4063 2.44133 30.1443 1.758C30.8823 1.07466 31.8389 0.732998 33.0143 0.732998C34.1896 0.732998 35.1463 1.061 35.8843 1.717C36.6223 2.373 36.9913 3.193 36.9913 4.177C36.9913 5.243 36.6223 6.13133 35.8843 6.842C35.1463 7.52533 34.1896 7.867 33.0143 7.867ZM64.0423 10.942L54.0793 34.353C53.068 36.895 51.8106 38.6853 50.3073 39.724C48.8313 40.7627 47.041 41.282 44.9363 41.282C43.7883 41.282 42.654 41.1043 41.5333 40.749C40.4126 40.3937 39.497 39.9017 38.7863 39.273L41.1233 34.722C41.6153 35.1593 42.1756 35.501 42.8043 35.747C43.4603 35.993 44.1026 36.116 44.7313 36.116C45.606 36.116 46.3166 35.8973 46.8633 35.46C47.41 35.05 47.902 34.353 48.3393 33.369L48.4213 33.164L38.8683 10.942H45.4693L51.6603 25.907L57.8923 10.942H64.0423ZM74.8285 10.614C78.2452 10.614 80.8692 11.434 82.7005 13.074C84.5318 14.6867 85.4475 17.133 85.4475 20.413V33H79.4615V30.253C78.2588 32.303 76.0175 33.328 72.7375 33.328C71.0428 33.328 69.5668 33.041 68.3095 32.467C67.0795 31.893 66.1365 31.1003 65.4805 30.089C64.8245 29.0777 64.4965 27.9297 64.4965 26.645C64.4965 24.595 65.2618 22.9823 66.7925 21.807C68.3505 20.6317 70.7422 20.044 73.9675 20.044H79.0515C79.0515 18.65 78.6278 17.584 77.7805 16.846C76.9332 16.0807 75.6622 15.698 73.9675 15.698C72.7922 15.698 71.6305 15.8893 70.4825 16.272C69.3618 16.6273 68.4052 17.1193 67.6125 17.748L65.3165 13.279C66.5192 12.4317 67.9542 11.7757 69.6215 11.311C71.3162 10.8463 73.0518 10.614 74.8285 10.614ZM74.3365 29.023C75.4298 29.023 76.4002 28.777 77.2475 28.285C78.0948 27.7657 78.6962 27.014 79.0515 26.03V23.775H74.6645C72.0405 23.775 70.7285 24.636 70.7285 26.358C70.7285 27.178 71.0428 27.834 71.6715 28.326C72.3275 28.7907 73.2158 29.023 74.3365 29.023ZM113.944 2.578V33H107.835V30.458C106.25 32.3713 103.954 33.328 100.947 33.328C98.8701 33.328 96.9841 32.8633 95.2894 31.934C93.6221 31.0047 92.3101 29.679 91.3534 27.957C90.3967 26.235 89.9184 24.2397 89.9184 21.971C89.9184 19.7023 90.3967 17.707 91.3534 15.985C92.3101 14.263 93.6221 12.9373 95.2894 12.008C96.9841 11.0787 98.8701 10.614 100.947 10.614C103.763 10.614 105.963 11.5023 107.548 13.279V2.578H113.944ZM102.054 28.08C103.667 28.08 105.006 27.5333 106.072 26.44C107.138 25.3193 107.671 23.8297 107.671 21.971C107.671 20.1123 107.138 18.6363 106.072 17.543C105.006 16.4223 103.667 15.862 102.054 15.862C100.414 15.862 99.0614 16.4223 97.9954 17.543C96.9294 18.6363 96.3964 20.1123 96.3964 21.971C96.3964 23.8297 96.9294 25.3193 97.9954 26.44C99.0614 27.5333 100.414 28.08 102.054 28.08ZM122.283 33.328C121.162 33.328 120.219 32.9453 119.454 32.18C118.689 31.4147 118.306 30.458 118.306 29.31C118.306 28.1347 118.689 27.1917 119.454 26.481C120.219 25.743 121.162 25.374 122.283 25.374C123.404 25.374 124.347 25.743 125.112 26.481C125.877 27.1917 126.26 28.1347 126.26 29.31C126.26 30.458 125.877 31.4147 125.112 32.18C124.347 32.9453 123.404 33.328 122.283 33.328Z" fill="#374B43"/>
</svg>
