<svg width="79" height="94" viewBox="0 0 79 94" fill="none" xmlns="http://www.w3.org/2000/svg">
<path d="M39.6763 0.657135C36.1769 10.806 34.0665 17.4448 30.1704 27.2918C32.5592 30.2871 35.4912 33.7751 40.2529 37.7146C35.1335 35.2228 31.6417 32.7208 29.0321 30.1247C24.0456 42.4326 16.2343 59.9643 0.381348 93.6595C12.8411 85.1505 22.4997 79.9043 31.5008 77.9025C31.0943 75.833 30.8958 73.7139 30.9094 71.5892L30.9245 71.117C31.1222 61.6743 35.2747 54.4129 40.1937 54.9055C45.1126 55.3985 48.9363 63.4581 48.7389 72.9011C48.7014 74.6776 48.5319 76.3872 48.2359 77.9726C57.1397 80.0325 66.6948 85.2653 78.986 93.6595C76.5625 88.3813 74.3993 83.6233 72.3335 79.0916C69.0794 76.1082 65.6852 72.2254 58.7619 68.0221C63.5205 69.4844 66.9279 71.1718 69.5835 73.0584C48.5798 26.7988 46.8791 20.6519 39.6763 0.657135Z" fill="#1793D1"/>
</svg>
