<svg xmlns="http://www.w3.org/2000/svg" width="80" height="48" fill="none" viewBox="0 0 80 48"><g clip-path="url(#clip0)"><path fill="#252F3E" d="M22.8093 17.0468C22.8093 18.01 22.9137 18.7908 23.0958 19.3635C23.327 20.0077 23.6053 20.6341 23.9285 21.2374C24.0587 21.4456 24.1106 21.6538 24.1106 21.8362C24.1106 22.0962 23.9546 22.3566 23.6163 22.617L21.9766 23.7101C21.7423 23.8664 21.5081 23.9444 21.2996 23.9444C21.0395 23.9444 20.7791 23.8142 20.5188 23.5799C20.1681 23.203 19.8544 22.7934 19.582 22.3566C19.3216 21.9145 19.0612 21.4195 18.775 20.8211C16.7448 23.2154 14.1938 24.4129 11.1227 24.4129C8.93655 24.4129 7.19251 23.7881 5.91702 22.539C4.64185 21.2893 3.99121 19.6236 3.99121 17.5415C3.99121 15.3292 4.77204 13.5332 6.35979 12.1798C7.94724 10.8263 10.0557 10.1496 12.7366 10.1496C13.6215 10.1496 14.5325 10.2275 15.4954 10.3577C16.4586 10.4879 17.4476 10.6961 18.4889 10.9304V9.03036C18.4889 7.05204 18.0722 5.67278 17.2653 4.86585C16.4325 4.05893 15.0269 3.66836 13.0228 3.66836C12.1117 3.66836 11.1749 3.77276 10.2117 4.00704C9.24882 4.24101 8.3117 4.52748 7.40069 4.89195C6.98433 5.07403 6.67206 5.17812 6.48967 5.23032C6.30759 5.28252 6.1774 5.30831 6.07331 5.30831C5.70885 5.30831 5.52677 5.04793 5.52677 4.50139V3.2259C5.52677 2.80954 5.57896 2.49727 5.70885 2.31519C5.83903 2.13281 6.07331 1.95073 6.43778 1.76865C7.3488 1.30009 8.44189 0.909522 9.71707 0.597253C10.9929 0.258884 12.3463 0.102903 13.7778 0.102903C16.8753 0.102903 19.1398 0.805432 20.5974 2.2111C22.0288 3.61647 22.7578 5.75077 22.7578 8.614V17.0468H22.81H22.8093ZM12.2419 21.0031C13.1011 21.0031 13.986 20.8472 14.9228 20.5346C15.8599 20.2223 16.6929 19.6497 17.3955 18.8688C17.8121 18.3745 18.1244 17.8279 18.2804 17.2031C18.4367 16.5786 18.5407 15.8235 18.5407 14.9386V13.8455C17.7514 13.6534 16.9519 13.5057 16.1461 13.4031C15.3346 13.3 14.5175 13.2478 13.6995 13.2468C11.9555 13.2468 10.6803 13.5851 9.82146 14.288C8.96234 14.9908 8.54598 15.9798 8.54598 17.2811C8.54598 18.5044 8.85825 19.4154 9.50889 20.0402C10.1337 20.6909 11.0447 21.0031 12.2419 21.0031ZM33.1425 23.8142C32.6739 23.8142 32.3616 23.7362 32.1535 23.5538C31.9453 23.3978 31.7629 23.0333 31.6069 22.539L25.4905 2.41928C25.3339 1.89853 25.2559 1.56016 25.2559 1.37808C25.2559 0.96172 25.4641 0.727135 25.8808 0.727135H28.4314C28.9258 0.727135 29.2644 0.805432 29.4465 0.987512C29.6547 1.1438 29.811 1.50827 29.967 2.00262L34.3397 19.2333L38.4001 2.00262C38.5303 1.48217 38.6866 1.1438 38.8944 0.987512C39.1029 0.831531 39.4674 0.727442 39.9359 0.727442H42.018C42.5124 0.727442 42.8511 0.805432 43.0589 0.987512C43.2674 1.1438 43.4495 1.50827 43.5536 2.00262L47.6662 19.4415L52.1688 2.00262C52.3248 1.48217 52.5072 1.1438 52.6892 0.987512C52.8974 0.831531 53.2358 0.727442 53.7043 0.727442H56.1248C56.5415 0.727442 56.7758 0.935621 56.7758 1.37808C56.7758 1.50827 56.7497 1.63846 56.7236 1.79444C56.6975 1.95073 56.6456 2.15891 56.5415 2.44538L50.2685 22.5648C50.1125 23.0855 49.9304 23.4239 49.7219 23.5799C49.5137 23.7362 49.1754 23.8403 48.7332 23.8403H46.4948C46.0002 23.8403 45.6618 23.7623 45.4533 23.5799C45.2451 23.3978 45.0631 23.0594 44.959 22.539L40.9243 5.75077L36.9161 22.5126C36.7862 23.0333 36.6299 23.3717 36.4218 23.5538C36.2136 23.7362 35.8491 23.8142 35.3809 23.8142H33.1422H33.1425ZM66.5884 24.517C65.235 24.517 63.8815 24.3607 62.5802 24.0485C61.2786 23.7362 60.2638 23.3975 59.5871 23.0076C59.1704 22.773 58.884 22.5129 58.7802 22.2786C58.6788 22.0489 58.6256 21.8008 58.6239 21.5497V20.2223C58.6239 19.6758 58.8321 19.4154 59.2226 19.4154C59.382 19.416 59.5403 19.4424 59.6912 19.4937C59.8472 19.5459 60.0815 19.6497 60.3418 19.7538C61.2611 20.1581 62.2208 20.4635 63.2048 20.6648C64.2243 20.8717 65.2619 20.9763 66.3023 20.977C67.9419 20.977 69.2174 20.6909 70.1023 20.1182C70.9872 19.5456 71.4558 18.7129 71.4558 17.6456C71.4558 16.9169 71.2215 16.3182 70.753 15.8235C70.2844 15.3292 69.3995 14.8867 68.1243 14.47L64.3501 13.299C62.45 12.7002 61.0447 11.8153 60.1855 10.6439C59.3267 9.49861 58.8843 8.22344 58.8843 6.86996C58.8843 5.77687 59.1185 4.81365 59.5871 3.98063C60.0554 3.14791 60.6802 2.41928 61.461 1.84664C62.2419 1.24789 63.1268 0.805432 64.168 0.493163C65.2089 0.180894 66.302 0.050705 67.4473 0.050705C68.0199 0.050705 68.6187 0.0768041 69.1913 0.154795C69.79 0.232785 70.3366 0.336875 70.8831 0.440965C71.4036 0.571154 71.8982 0.701343 72.3668 0.857631C72.8354 1.01361 73.1995 1.1699 73.4599 1.32588C73.8244 1.53437 74.0844 1.74255 74.2407 1.97683C74.397 2.185 74.475 2.47117 74.475 2.83564V4.05893C74.475 4.60547 74.2668 4.89195 73.8763 4.89195C73.6681 4.89195 73.3297 4.78755 72.8876 4.57938C71.4036 3.90264 69.7378 3.56427 67.89 3.56427C66.4064 3.56427 65.235 3.79855 64.428 4.29321C63.6214 4.78756 63.2048 5.54259 63.2048 6.60959C63.2048 7.33852 63.4651 7.96306 63.9856 8.45772C64.5063 8.95207 65.4693 9.44672 66.8488 9.88918L70.5448 11.0606C72.4187 11.6593 73.7722 12.492 74.5791 13.559C75.386 14.6263 75.7766 15.8496 75.7766 17.2031C75.7766 18.3223 75.542 19.3374 75.0995 20.2223C74.6313 21.1072 74.0065 21.8881 73.1995 22.5129C72.3926 23.1635 71.4297 23.6321 70.3105 23.9705C69.1391 24.3349 67.9158 24.517 66.5884 24.517Z"/><path fill="#F90" d="M71.5078 37.1665C62.9448 43.4914 50.5031 46.849 39.8059 46.849C24.8135 46.849 11.3052 41.3049 1.10227 32.091C0.29534 31.3624 1.02397 30.3733 1.98688 30.9457C13.0228 37.3489 26.6356 41.2269 40.7169 41.2269C50.217 41.2269 60.6542 39.2489 70.2587 35.1885C71.6902 34.5376 72.9135 36.1256 71.5078 37.1665ZM75.0739 33.1061C73.9808 31.7007 67.8379 32.4294 65.053 32.7677C64.22 32.8721 64.0898 32.1432 64.8448 31.5966C69.7379 28.1607 77.7808 29.1501 78.7176 30.2951C79.6547 31.4664 78.4572 39.509 73.8764 43.3612C73.1738 43.96 72.4971 43.6477 72.8094 42.8669C73.8503 40.2898 76.1669 34.4857 75.0739 33.1061Z"/></g><defs><clipPath id="clip0"><rect width="78.605" height="46.979" fill="#fff" transform="translate(0.581421 0.0245819)"/></clipPath></defs></svg>