<svg xmlns="http://www.w3.org/2000/svg" width="79" height="79" fill="none" viewBox="0 0 79 79"><path fill="#0089D6" d="M37.067 63.9413C45.8363 62.1579 53.0778 60.6816 53.1613 60.662L53.3136 60.6251L45.0355 49.2889C40.4814 43.0545 36.7575 37.928 36.7575 37.8986C36.7575 37.8691 45.3057 10.7407 45.3549 10.6449C45.3721 10.6129 51.1888 22.1752 59.457 38.6748L73.6403 66.9749L73.7484 67.1911H21.1274L37.067 63.9413Z"/><path fill="#0089D6" d="M5.48962 60.4827C5.48962 60.4679 9.39038 52.6713 14.1582 43.1577L22.8269 25.8622L32.9398 16.1054C38.4962 10.7382 43.0577 6.33879 43.0749 6.33142C43.0386 6.49416 42.9842 6.65235 42.9128 6.80305L31.9327 33.8873L21.1491 60.49H13.3157C10.7071 60.5167 8.09821 60.5142 5.48962 60.4827Z"/></svg>