<svg xmlns="http://www.w3.org/2000/svg" width="54" height="79" fill="none" viewBox="0 0 54 79"><g clip-path="url(#clip0)"><path fill="#0ACF83" d="M13.7473 78.9083C20.9789 78.9083 26.848 73.0392 26.848 65.8075V52.7068H13.7473C6.51563 52.7068 0.646484 58.5759 0.646484 65.8075C0.646484 73.0392 6.51563 78.9083 13.7473 78.9083Z"/><path fill="#A259FF" d="M0.646484 39.606C0.646484 32.3743 6.51563 26.5052 13.7473 26.5052H26.848V52.7067H13.7473C6.51563 52.7067 0.646484 46.8376 0.646484 39.606Z"/><path fill="#F24E1E" d="M0.646484 13.4044C0.646484 6.1728 6.51563 0.30365 13.7473 0.30365H26.848V26.5052H13.7473C6.51563 26.5052 0.646484 20.6361 0.646484 13.4044Z"/><path fill="#FF7262" d="M26.848 0.30365H39.9488C47.1804 0.30365 53.0496 6.1728 53.0496 13.4044C53.0496 20.6361 47.1804 26.5052 39.9488 26.5052H26.848V0.30365Z"/><path fill="#1ABCFE" d="M53.0496 39.606C53.0496 46.8376 47.1804 52.7067 39.9488 52.7067C32.7172 52.7067 26.848 46.8376 26.848 39.606C26.848 32.3743 32.7172 26.5052 39.9488 26.5052C47.1804 26.5052 53.0496 32.3743 53.0496 39.606Z"/></g><defs><clipPath id="clip0"><rect width="52.403" height="78.605" fill="#fff" transform="translate(0.646484 0.30365)"/></clipPath></defs></svg>