<svg width="79" height="77" viewBox="0 0 79 77" fill="none" xmlns="http://www.w3.org/2000/svg">
<path fill-rule="evenodd" clip-rule="evenodd" d="M39.6976 0.0896912C17.9831 0.0896912 0.395264 17.6775 0.395264 39.392C0.395264 56.7833 11.6456 71.4725 27.2682 76.6801C29.2333 77.024 29.9703 75.8449 29.9703 74.8132C29.9703 73.8798 29.9211 70.7847 29.9211 67.4932C20.0464 69.3109 17.4918 65.0859 16.7057 62.8752C16.2636 61.7452 14.3476 58.2571 12.6772 57.3237C11.3017 56.5868 9.33654 54.7691 12.6281 54.7199C15.7232 54.6708 17.9339 57.5693 18.6708 58.7484C22.2081 64.6929 27.8578 63.0225 30.1176 61.9909C30.4615 59.4362 31.4932 57.7167 32.6232 56.7342C23.8784 55.7516 14.7406 52.3618 14.7406 37.3286C14.7406 33.0545 16.2636 29.5173 18.7691 26.7661C18.3761 25.7836 17.0005 21.7551 19.1621 16.351C19.1621 16.351 22.4537 15.3193 29.9703 20.3795C33.1144 19.4952 36.4551 19.0531 39.7958 19.0531C43.1365 19.0531 46.4772 19.4952 49.6214 20.3795C57.138 15.2702 60.4296 16.351 60.4296 16.351C62.5912 21.7551 61.2156 25.7836 60.8226 26.7661C63.3281 29.5173 64.8511 33.0054 64.8511 37.3286C64.8511 52.4109 55.6642 55.7516 46.9194 56.7342C48.3441 57.9624 49.5723 60.3205 49.5723 64.0051C49.5723 69.2618 49.5232 73.4868 49.5232 74.8132C49.5232 75.8449 50.2601 77.0731 52.2252 76.6801C60.0273 74.0459 66.807 69.0315 71.61 62.3425C76.413 55.6535 78.9976 47.6268 78.9999 39.392C78.9999 17.6775 61.4121 0.0896912 39.6976 0.0896912Z" fill="black"/>
</svg>
