<svg xmlns="http://www.w3.org/2000/svg" width="80" height="58" fill="none" viewBox="0 0 80 58"><path fill="#539E43" d="M39.5549 57.1877C39.2885 57.1877 39.0398 57.1037 38.8087 56.9566L36.4457 55.2959C36.0903 55.0645 36.268 54.9805 36.3747 54.9385C36.8543 54.7493 36.9432 54.7071 37.4406 54.371C37.494 54.3288 37.5652 54.3499 37.6184 54.3919L39.4307 55.6742C39.5017 55.7162 39.5906 55.7162 39.6438 55.6742L46.7332 50.8181C46.8042 50.7761 46.8399 50.6918 46.8399 50.5869V40.8957C46.8399 40.7904 46.8042 40.7065 46.7332 40.6643L39.6438 35.8292C39.5728 35.7871 39.4839 35.7871 39.4307 35.8292L32.3413 40.6643C32.2703 40.7063 32.2346 40.8115 32.2346 40.8955V50.5867C32.2346 50.6709 32.2703 50.7759 32.3413 50.8181L34.2781 52.1424C35.3264 52.773 35.9837 52.0373 35.9837 51.3015V41.7364C35.9837 41.6103 36.0726 41.4841 36.1969 41.4841H37.103C37.2097 41.4841 37.3163 41.5892 37.3163 41.7364V51.3015C37.3163 52.9622 36.5522 53.9293 35.2197 53.9293C34.811 53.9293 34.4913 53.9293 33.585 53.4037L31.7195 52.1424C31.2575 51.8272 30.9733 51.2384 30.9733 50.6078V40.9166C30.9733 40.286 31.2575 39.6972 31.7195 39.382L38.8087 34.5258C39.253 34.2315 39.8572 34.2315 40.3013 34.5258L47.3905 39.382C47.8525 39.6972 48.1369 40.286 48.1369 40.9166V50.6078C48.1369 51.2384 47.8525 51.8272 47.3905 52.1424L40.3013 56.9986C40.0702 57.1248 39.8038 57.1877 39.5551 57.1877H39.5549ZM41.7404 50.5238C38.6311 50.5238 37.9915 48.842 37.9915 47.4125C37.9915 47.2863 38.0803 47.1602 38.2047 47.1602H39.1286C39.2352 47.1602 39.324 47.2443 39.324 47.3705C39.4662 48.4846 39.8748 49.0312 41.7582 49.0312C43.2507 49.0312 43.8905 48.6317 43.8905 47.6857C43.8905 47.1391 43.7126 46.7399 41.3851 46.4665C39.4484 46.2351 38.2402 45.7307 38.2402 43.9018C38.2402 42.1989 39.4485 41.1898 41.474 41.1898C43.7481 41.1898 44.8676 42.1149 45.0098 44.1328C45.0098 44.1961 44.992 44.259 44.9565 44.3222C44.9208 44.3642 44.8676 44.4062 44.8143 44.4062H43.8903C43.8015 44.4062 43.7126 44.3222 43.695 44.217C43.4817 43.0609 42.9309 42.6824 41.474 42.6824C39.8393 42.6824 39.6438 43.3552 39.6438 43.8596C39.6438 44.4693 39.8748 44.6585 42.078 44.9948C44.2635 45.3313 45.2941 45.8148 45.2941 47.6226C45.2762 49.4726 43.997 50.5238 41.7404 50.5238Z"/><path fill="#333" d="M17.5583 19.2849C17.5583 18.9066 17.3806 18.549 17.0964 18.3598L9.56286 13.2305C9.43833 13.1463 9.29629 13.1043 9.15424 13.0832H9.08306C8.94101 13.0832 8.79881 13.1463 8.67444 13.2305L1.14092 18.3598C0.856516 18.549 0.678955 18.9064 0.678955 19.2849L0.696788 33.0753C0.696788 33.2645 0.785646 33.4537 0.927695 33.5379C1.0699 33.643 1.24746 33.643 1.37198 33.5379L5.84945 30.5107C6.1337 30.3215 6.31141 29.9641 6.31141 29.5858V23.1319C6.31141 22.7536 6.48897 22.3962 6.77338 22.207L8.67444 20.9036C8.81664 20.7984 8.97652 20.7562 9.1364 20.7562C9.29629 20.7562 9.45617 20.7984 9.58069 20.9036L11.4817 22.207C11.7662 22.3962 11.9437 22.7534 11.9437 23.1319V29.5858C11.9437 29.9641 12.1214 30.3215 12.4057 30.5107L16.8831 33.5379C17.0253 33.643 17.2029 33.643 17.3451 33.5379C17.4873 33.4537 17.5762 33.2645 17.5762 33.0753L17.5583 19.2849Z"/><path fill="#333" d="M53.7689 0.301687C53.6269 0.217471 53.4492 0.217471 53.3246 0.301687C53.1826 0.406821 53.0937 0.574888 53.0937 0.764056V14.4287C53.0937 14.5547 53.0406 14.6808 52.9339 14.765C52.8273 14.8279 52.7206 14.8279 52.6141 14.765L50.7307 13.4826C50.5926 13.3896 50.4365 13.3407 50.2776 13.3407C50.1187 13.3407 49.9625 13.3896 49.8245 13.4826L42.2909 18.6331C42.0067 18.8223 41.829 19.1797 41.829 19.558V29.8378C41.829 30.2161 42.0067 30.5737 42.2909 30.7629L49.8245 35.9133C49.9625 36.0064 50.1187 36.0553 50.2776 36.0553C50.4365 36.0553 50.5926 36.0064 50.7307 35.9133L58.2642 30.7629C58.5485 30.5737 58.7262 30.2163 58.7262 29.8378V4.21181C58.7262 3.81238 58.5485 3.45514 58.2642 3.26579L53.7691 0.301687H53.7689ZM53.0761 26.4533C53.0761 26.5585 53.0405 26.6425 52.9694 26.6845L50.3931 28.4503C50.3571 28.4711 50.3176 28.4819 50.2776 28.4819C50.2376 28.4819 50.198 28.4711 50.1621 28.4503L47.5858 26.6845C47.5146 26.6425 47.4791 26.5374 47.4791 26.4533V22.9215C47.4791 22.8164 47.5146 22.7324 47.5858 22.6904L50.1621 20.9244C50.198 20.9036 50.2376 20.8928 50.2776 20.8928C50.3176 20.8928 50.3571 20.9036 50.3931 20.9244L52.9694 22.6904C53.0405 22.7322 53.0761 22.8375 53.0761 22.9215V26.4533Z"/><path fill="#333" d="M78.8394 22.8376C79.1238 22.6484 79.2837 22.291 79.2837 21.9125V19.4109C79.2837 19.0326 79.106 18.6752 78.8394 18.486L71.3592 13.3567C71.2212 13.2637 71.065 13.2148 70.9062 13.2148C70.7473 13.2148 70.5912 13.2637 70.4531 13.3567L62.9196 18.5069C62.6352 18.6961 62.4576 19.0535 62.4576 19.432V29.7118C62.4576 30.0901 62.6352 30.4475 62.9196 30.6367L70.3998 35.6819C70.6842 35.8711 71.0216 35.8711 71.2882 35.6819L75.8188 32.6971C75.961 32.6129 76.0499 32.4237 76.0499 32.2346C76.0499 32.0454 75.961 31.8562 75.8188 31.772L68.2498 26.6216C68.1078 26.5167 68.0189 26.3484 68.0189 26.1592V22.9429C68.0189 22.7537 68.1078 22.5645 68.2498 22.4803L70.613 20.8826C70.6822 20.8311 70.7622 20.8038 70.844 20.8038C70.9257 20.8038 71.0058 20.8311 71.075 20.8826L73.438 22.4803C73.5802 22.5855 73.669 22.7535 73.669 22.9429V25.4655C73.669 25.6547 73.7579 25.8438 73.9 25.9279C74.0422 26.033 74.2197 26.033 74.3619 25.9279L78.8394 22.8376Z"/><path fill="#539E43" d="M70.7908 22.354C70.8172 22.3334 70.848 22.3225 70.8796 22.3225C70.9111 22.3225 70.942 22.3334 70.9684 22.354L72.4076 23.342C72.4609 23.3838 72.4965 23.447 72.4965 23.5312V25.5073C72.4965 25.5913 72.4609 25.6544 72.4076 25.6964L70.9684 26.6845C70.942 26.705 70.9111 26.716 70.8796 26.716C70.848 26.716 70.8172 26.705 70.7908 26.6845L69.3516 25.6964C69.2982 25.6544 69.2627 25.5913 69.2627 25.5073V23.5312C69.2627 23.447 69.2982 23.3838 69.3516 23.342L70.7908 22.354Z"/><mask id="mask0" width="18" height="23" x="21" y="13" maskUnits="userSpaceOnUse" style="mask-type:alpha"><path fill="#fff" d="M30.1555 13.3985C30.0174 13.3055 29.8613 13.2567 29.7025 13.2567C29.5436 13.2567 29.3875 13.3055 29.2494 13.3985L21.7692 18.5066C21.4848 18.6958 21.325 19.0532 21.325 19.4315V29.6695C21.325 30.0478 21.5027 30.4053 21.7692 30.5944L29.2494 35.7029C29.3875 35.7958 29.5436 35.8447 29.7025 35.8447C29.8613 35.8447 30.0174 35.7958 30.1555 35.7029L37.6358 30.5944C37.9201 30.4053 38.0801 30.0478 38.0801 29.6695V19.4317C38.0801 19.0534 37.9022 18.696 37.6358 18.5068L30.1555 13.3985Z"/></mask><g mask="url(#mask0)"><path fill="url(#paint0_linear)" d="M30.1555 13.3985C30.0174 13.3055 29.8613 13.2567 29.7025 13.2567C29.5436 13.2567 29.3875 13.3055 29.2494 13.3985L21.7692 18.5066C21.4848 18.6958 21.325 19.0532 21.325 19.4315V29.6695C21.325 30.0478 21.5027 30.4053 21.7692 30.5944L29.2494 35.7029C29.3875 35.7958 29.5436 35.8447 29.7025 35.8447C29.8613 35.8447 30.0174 35.7958 30.1555 35.7029L37.6358 30.5944C37.9201 30.4053 38.0801 30.0478 38.0801 29.6695V19.4317C38.0801 19.0534 37.9022 18.696 37.6358 18.5068L30.1555 13.3985Z"/><path fill="url(#paint1_linear)" d="M37.6537 18.5069L30.138 13.3987C30.0641 13.3546 29.9867 13.3194 29.9069 13.2936L21.485 30.3637C21.5547 30.4644 21.639 30.5499 21.7339 30.616L29.2496 35.7244C29.4628 35.8715 29.7115 35.9135 29.9424 35.8293L37.8492 18.7174C37.7959 18.6333 37.7247 18.5701 37.6537 18.5071V18.5069Z"/><path fill="url(#paint2_linear)" fill-rule="evenodd" d="M37.6715 30.5944C37.8848 30.4472 38.0447 30.195 38.1158 29.9218L29.8713 13.2722C29.6581 13.2302 29.427 13.2511 29.2318 13.3982L21.7693 18.4857L29.818 35.85C29.935 35.8273 30.0487 35.7848 30.1556 35.7239L37.6714 30.5946L37.6715 30.5944Z" clip-rule="evenodd"/><path fill="url(#paint3_linear)" fill-rule="evenodd" d="M37.6714 30.5944L30.1734 35.7031C30.0676 35.7669 29.9535 35.8095 29.8358 35.8291L29.978 36.1445L38.2933 30.4475V30.3212L38.08 29.9007C38.0445 30.195 37.8846 30.4473 37.6714 30.5944Z" clip-rule="evenodd"/><path fill="url(#paint4_linear)" fill-rule="evenodd" d="M37.6714 30.5944L30.1734 35.7031C30.0676 35.7669 29.9535 35.8095 29.8358 35.8291L29.978 36.1445L38.2933 30.4475V30.3212L38.08 29.9007C38.0445 30.195 37.8846 30.4473 37.6714 30.5944Z" clip-rule="evenodd"/></g><defs><linearGradient id="paint0_linear" x1="32.75" x2="22.459" y1="17.207" y2="30.874" gradientUnits="userSpaceOnUse"><stop stop-color="#41873F"/><stop offset=".329" stop-color="#418B3D"/><stop offset=".635" stop-color="#419637"/><stop offset=".932" stop-color="#3FA92D"/><stop offset="1" stop-color="#3FAE2A"/></linearGradient><linearGradient id="paint1_linear" x1="28.567" x2="50.531" y1="25.75" y2="15.664" gradientUnits="userSpaceOnUse"><stop offset=".138" stop-color="#41873F"/><stop offset=".403" stop-color="#54A044"/><stop offset=".714" stop-color="#66B848"/><stop offset=".908" stop-color="#6CC04A"/></linearGradient><linearGradient id="paint2_linear" x1="21.052" x2="38.361" y1="24.551" y2="24.551" gradientUnits="userSpaceOnUse"><stop offset=".092" stop-color="#6CC04A"/><stop offset=".286" stop-color="#66B848"/><stop offset=".597" stop-color="#54A044"/><stop offset=".862" stop-color="#41873F"/></linearGradient><linearGradient id="paint3_linear" x1="21.052" x2="38.361" y1="33.04" y2="33.04" gradientUnits="userSpaceOnUse"><stop offset=".092" stop-color="#6CC04A"/><stop offset=".286" stop-color="#66B848"/><stop offset=".597" stop-color="#54A044"/><stop offset=".862" stop-color="#41873F"/></linearGradient><linearGradient id="paint4_linear" x1="40.882" x2="34.828" y1="16.722" y2="43.532" gradientUnits="userSpaceOnUse"><stop stop-color="#41873F"/><stop offset=".329" stop-color="#418B3D"/><stop offset=".635" stop-color="#419637"/><stop offset=".932" stop-color="#3FA92D"/><stop offset="1" stop-color="#3FAE2A"/></linearGradient></defs></svg>