<svg xmlns="http://www.w3.org/2000/svg" width="89" height="79" fill="none" viewBox="0 0 89 79"><g clip-path="url(#clip0)"><path fill="#00D8FF" d="M72.7073 25.7551C71.7662 25.4329 70.8171 25.1343 69.8609 24.8598C70.0215 24.2047 70.1694 23.5576 70.3007 22.9219C72.4555 12.4823 71.0468 4.07196 66.2353 1.30287C61.6221 -1.35176 54.0775 1.4163 46.458 8.0346C45.7071 8.68803 44.9728 9.36029 44.2559 10.0507C43.7759 9.59162 43.2875 9.1414 42.7909 8.70033C34.8052 1.62384 26.8009 -1.35865 21.9946 1.41837C17.3855 4.08127 16.0207 11.9876 17.9607 21.8814C18.1537 22.8613 18.3716 23.8361 18.6142 24.805C17.4812 25.1263 16.3879 25.4683 15.3416 25.8323C5.97906 29.0903 0 34.1958 0 39.4916C0 44.9612 6.41879 50.4473 16.1703 53.7739C16.9609 54.0425 17.758 54.2913 18.561 54.5203C18.3002 55.5638 18.0687 56.6143 17.8667 57.6707C16.0173 67.3928 17.4615 75.1123 22.0582 77.7583C26.8058 80.4909 34.7742 77.6825 42.5329 70.9132C43.162 70.3628 43.7773 69.7969 44.3782 69.2159C45.1545 69.9635 45.9516 70.6894 46.7685 71.3927C54.2844 77.8473 61.707 80.4536 66.2992 77.8004C71.0423 75.0599 72.584 66.7671 70.5825 56.6778C70.4249 55.8874 70.2481 55.1008 70.0523 54.319C70.6119 54.1535 71.1611 53.9832 71.6965 53.806C81.8342 50.4539 88.4302 45.0343 88.4302 39.4916C88.4302 34.1765 82.2581 29.0365 72.7073 25.7551ZM70.5086 50.2274C70.025 50.387 69.529 50.5411 69.0233 50.6911C67.9041 47.1549 66.3938 43.395 64.5454 39.5099C66.3092 35.7176 67.7614 32.0056 68.8492 28.4925C69.7538 28.7538 70.6316 29.0293 71.4779 29.3199C79.6611 32.1318 84.6526 36.2885 84.6526 39.4916C84.6526 42.9033 79.2618 47.3324 70.5086 50.2274ZM66.8767 57.41C67.7617 61.8712 67.8878 65.9049 67.3016 69.0584C66.7752 71.8919 65.7161 73.7808 64.4062 74.5376C61.6196 76.1476 55.6599 74.0549 49.2325 68.5347C48.4727 67.8808 47.7312 67.2059 47.009 66.5109C49.5009 63.7912 51.9911 60.6294 54.4216 57.1177C58.6966 56.7391 62.7354 56.12 66.398 55.275C66.5783 56.0014 66.7386 56.7136 66.8767 57.41ZM30.1478 74.2594C27.4251 75.2188 25.2565 75.2464 23.9456 74.4921C21.1562 72.8865 19.9966 66.6881 21.5784 58.374C21.7664 57.3915 21.9817 56.4144 22.224 55.4439C25.8462 56.2437 29.8556 56.8188 34.1406 57.1656C36.5877 60.6018 39.1497 63.7601 41.7318 66.5258C41.1831 67.0557 40.6214 67.5721 40.0472 68.0744C36.616 71.0676 33.1779 73.1913 30.1478 74.2594ZM17.3924 50.2063C13.0804 48.7353 9.51938 46.8236 7.07856 44.7375C4.88508 42.863 3.77797 41.0017 3.77797 39.4916C3.77797 36.2778 8.57842 32.1786 16.5852 29.3927C17.5569 29.0548 18.5738 28.7359 19.6291 28.4366C20.7359 32.029 22.1874 35.7851 23.939 39.5833C22.1646 43.4377 20.6923 47.2538 19.5749 50.8886C18.8419 50.6791 18.1142 50.4516 17.3924 50.2063ZM21.6682 21.1571C20.0063 12.6805 21.11 6.28634 23.8876 4.68149C26.8458 2.97219 33.3876 5.40927 40.2827 11.5198C40.7324 11.9191 41.1747 12.3266 41.6095 12.7419C39.0402 15.4955 36.5017 18.6304 34.0764 22.0462C29.9174 22.431 25.9363 23.0488 22.2761 23.8765C22.0506 22.9754 21.8479 22.0688 21.6682 21.1574V21.1571ZM59.813 30.5579C58.9485 29.0675 58.0519 27.5959 57.1239 26.144C59.9453 26.5001 62.6487 26.9728 65.1872 27.5506C64.4252 29.9887 63.4753 32.5375 62.3571 35.1508C61.5398 33.6031 60.6916 32.0718 59.813 30.5579ZM44.2576 15.4365C46 17.3206 47.7451 19.424 49.4615 21.7063C45.9796 21.5422 42.4918 21.5415 39.0098 21.7042C40.728 19.443 42.488 17.3424 44.2576 15.4365ZM28.6023 30.5838C27.7347 32.0855 26.9024 33.6072 26.1059 35.1477C25.0061 32.5437 24.0648 29.9832 23.2962 27.5106C25.8192 26.9473 28.5098 26.4867 31.3133 26.1371C30.3749 27.5978 29.471 29.0804 28.6023 30.5834V30.5838ZM31.3938 53.1144C28.4973 52.7917 25.7664 52.3549 23.244 51.8067C24.0247 49.29 24.9867 46.675 26.1104 44.0152C26.91 45.5568 27.7459 47.0795 28.6172 48.5818C29.5132 50.1264 30.4411 51.6392 31.3938 53.1144ZM44.3619 63.8122C42.5712 61.8843 40.7853 59.7513 39.0413 57.4573C40.7346 57.5235 42.4607 57.5573 44.2151 57.5573C46.0176 57.5573 47.7993 57.5169 49.5531 57.439C47.8311 59.7744 46.0925 61.9105 44.3619 63.8122ZM62.3927 43.8794C63.5748 46.5685 64.571 49.1697 65.362 51.6433C62.7982 52.2273 60.03 52.6976 57.1132 53.0468C58.0478 51.568 58.9529 50.0707 59.8279 48.556C60.7175 47.0163 61.5726 45.457 62.3927 43.8794ZM56.5556 46.6722C55.2161 48.9946 53.8013 51.273 52.3134 53.5036C49.6182 53.6941 46.9171 53.7888 44.2151 53.7873C41.4631 53.7873 38.7863 53.7018 36.2087 53.535C34.682 51.3095 33.2402 49.0272 31.8864 46.6929H31.8867C30.5392 44.371 29.2806 41.9989 28.1136 39.5816C29.2776 37.1638 30.5324 34.7905 31.8753 32.4669L31.875 32.4672C33.2173 30.1429 34.6476 27.8704 36.1628 25.6545C38.7925 25.4559 41.4893 25.3524 44.2148 25.3524H44.2151C46.953 25.3524 49.6532 25.4569 52.2823 25.6569C53.7822 27.8695 55.2034 30.1342 56.5432 32.4469C57.8905 34.7654 59.1619 37.1271 60.3554 39.5282C59.1742 41.9538 57.9068 44.3367 56.5556 46.6722ZM64.3485 4.5691C67.3096 6.27358 68.4612 13.147 66.6007 22.1607C66.4819 22.7357 66.3486 23.3215 66.2035 23.9155C62.5343 23.0702 58.5505 22.4417 54.3794 22.0511C51.9497 18.5976 49.4318 15.4579 46.9043 12.7398C47.5667 12.1026 48.2449 11.4818 48.9382 10.8782C55.4668 5.20794 61.5685 2.96908 64.3485 4.5691ZM44.2151 31.6105C48.5762 31.6105 52.1117 35.1391 52.1117 39.4916C52.1117 43.8442 48.5762 47.3728 44.2151 47.3728C39.8541 47.3728 36.3186 43.8442 36.3186 39.4916C36.3186 35.1391 39.8541 31.6105 44.2151 31.6105Z"/></g><defs><clipPath id="clip0"><rect width="88.43" height="78.605" fill="#fff" transform="translate(0 0.30365)"/></clipPath></defs></svg>