<svg width="67" height="80" viewBox="0 0 67 80" fill="none" xmlns="http://www.w3.org/2000/svg">
<g clip-path="url(#clip0)">
<path d="M62.0483 11.1901C54.7573 0.754801 40.3575 -2.33809 29.9463 4.29507L11.661 15.9495C9.19084 17.5035 7.07211 19.5558 5.44023 21.9752C3.80835 24.3946 2.69923 27.1279 2.18376 30.0003C1.31146 34.8389 2.07808 39.8301 4.36223 44.1839C2.79704 46.5582 1.72952 49.2251 1.22417 52.0237C0.703297 54.954 0.772791 57.9588 1.42858 60.8619C2.08436 63.765 3.31324 66.5079 5.04313 68.9298C12.3355 79.3661 26.7352 82.4577 37.1452 75.8245L55.4305 64.1706C57.9008 62.6168 60.0197 60.5645 61.6516 58.145C63.2835 55.7255 64.3925 52.9921 64.9077 50.1195C65.7799 45.2811 65.0138 40.2899 62.7308 35.9357C64.2955 33.5615 65.3625 30.8945 65.8673 28.0962C66.3885 25.1659 66.3193 22.161 65.6635 19.2579C65.0078 16.3547 63.7787 13.6118 62.0486 11.1901" fill="#FF3E00"/>
<path d="M28.1582 69.9226C22.2624 71.4556 16.0365 69.1478 12.5641 64.1426C11.5233 62.6858 10.7839 61.0357 10.3894 59.2893C9.99482 57.5429 9.95304 55.7353 10.2665 53.9725C10.3726 53.3937 10.5187 52.823 10.7036 52.2644L11.0482 51.2142L11.9851 51.9025C14.1492 53.4926 16.569 54.7015 19.1401 55.4772L19.8197 55.6834L19.7572 56.362C19.6741 57.3272 19.9354 58.2906 20.4948 59.0815C21.0049 59.8176 21.7287 60.3794 22.5683 60.6911C23.408 61.0027 24.323 61.0491 25.1899 60.8241C25.5875 60.7179 25.9664 60.5513 26.3136 60.3303L44.6045 48.6743C45.052 48.3925 45.436 48.0206 45.7319 47.5822C46.0278 47.1438 46.2291 46.6486 46.323 46.1281C46.4169 45.5968 46.404 45.0521 46.2851 44.5258C46.1663 43.9995 45.9438 43.5022 45.6307 43.0628C45.1202 42.3265 44.3962 41.7646 43.5563 41.4528C42.7163 41.141 41.801 41.0944 40.9338 41.3192C40.5368 41.4254 40.1585 41.5918 39.8119 41.8125L32.8319 46.2618C31.6842 46.9916 30.4317 47.5416 29.1178 47.8929C23.2222 49.4259 16.9961 47.1181 13.5242 42.1126C12.4833 40.6559 11.7439 39.0059 11.3493 37.2595C10.9547 35.5131 10.9129 33.7055 11.2263 31.9428C11.5363 30.215 12.2035 28.5709 13.1853 27.1157C14.167 25.6605 15.4417 24.4262 16.9277 23.4917L35.2171 11.8345C36.3653 11.1036 37.6187 10.553 38.9337 10.2017C44.8293 8.66864 51.0554 10.9765 54.5273 15.9817C55.5681 17.4385 56.3076 19.0885 56.7022 20.8349C57.0968 22.5814 57.1386 24.389 56.8252 26.1518C56.7186 26.7304 56.5725 27.301 56.388 27.8597L56.0435 28.9101L55.1069 28.2228C52.9429 26.6318 50.5229 25.4223 47.9515 24.6466L47.2717 24.4401L47.3344 23.7618C47.4168 22.7967 47.1556 21.8335 46.5969 21.0422C46.0867 20.3061 45.3629 19.7443 44.5232 19.4326C43.6835 19.121 42.7684 19.0746 41.9015 19.2997C41.504 19.4059 41.1252 19.5725 40.7781 19.7935L22.4872 31.45C22.0396 31.7315 21.6557 32.1034 21.36 32.5417C21.0642 32.98 20.8632 33.4752 20.7696 33.9957C20.6753 34.527 20.6878 35.0717 20.8065 35.5981C20.9252 36.1245 21.1477 36.6219 21.461 37.0613C21.9715 37.7975 22.6955 38.3595 23.5354 38.6712C24.3753 38.983 25.2906 39.0297 26.1579 38.8048C26.5553 38.6984 26.9342 38.5318 27.2813 38.311L34.26 33.8635C35.4073 33.1327 36.6598 32.5821 37.9738 32.2309C43.8695 30.6981 50.0956 33.006 53.5677 38.0114C54.6085 39.4681 55.3479 41.1181 55.7424 42.8644C56.137 44.6108 56.1788 46.4183 55.8653 48.181C55.5551 49.909 54.8879 51.5532 53.9062 53.0086C52.9244 54.4641 51.6499 55.6987 50.164 56.6336L31.8746 68.2898C30.7264 69.0206 29.473 69.5713 28.158 69.9226" fill="white"/>
</g>
<defs>
<clipPath id="clip0">
<rect width="65.3337" height="78.6047" fill="white" transform="translate(0.879028 0.801323)"/>
</clipPath>
</defs>
</svg>
