<svg xmlns="http://www.w3.org/2000/svg" width="79" height="79" fill="none" viewBox="0 0 79 79"><g clip-path="url(#clip0)"><path fill="#007ACC" d="M0.20459 39.606V78.9083H78.8092V0.30365H0.20459V39.606Z"/><path fill="#fff" d="M17.5871 39.867L17.5623 43.0858H27.7931V72.1572H35.0303V43.0858H45.2612V39.9293C45.2612 38.1822 45.2237 36.7225 45.174 36.685C45.1365 36.6353 38.9105 36.6101 31.362 36.6227L17.6249 36.6601L17.5874 39.8666L17.5871 39.867Z"/><path fill="#fff" d="M63.6309 36.5687C65.6271 37.0679 67.1494 37.9535 68.5468 39.4009C69.2705 40.1747 70.3434 41.5846 70.4309 41.9215C70.4554 42.0212 67.037 44.3171 64.966 45.6021C64.8911 45.6521 64.5914 45.3276 64.2546 44.8283C63.2441 43.3563 62.1835 42.7198 60.5614 42.6077C58.1787 42.4453 56.6437 43.6931 56.6563 45.7765C56.6563 46.3881 56.7435 46.7498 56.9932 47.2491C57.5173 48.3345 58.4903 48.9833 61.5473 50.3057C67.1743 52.7265 69.5822 54.3235 71.0797 56.5941C72.7515 59.1273 73.1258 63.1696 71.9904 66.1765C70.7428 69.4454 67.6487 71.6666 63.2938 72.4026C61.9465 72.6396 58.7525 72.6021 57.3051 72.3402C54.1486 71.7786 51.154 70.2191 49.3074 68.173C48.5837 67.3743 47.1737 65.2907 47.2612 65.1408C47.2987 65.0911 47.6229 64.8915 47.9846 64.6793C48.334 64.4798 49.6568 63.7183 50.9044 62.9949L53.1627 61.6847L53.6368 62.3835C54.2982 63.394 55.7453 64.7791 56.6189 65.2406C59.1265 66.5634 62.5704 66.3761 64.2672 64.8538C64.9909 64.1927 65.2902 63.5064 65.2902 62.4956C65.2902 61.5849 65.1779 61.1857 64.7038 60.4998C64.0928 59.6262 62.8449 58.8899 59.3012 57.3556C55.2463 55.6085 53.4995 54.5231 51.9026 52.8011C50.9793 51.8032 50.1057 50.206 49.744 48.8709C49.4446 47.7606 49.3694 44.9781 49.6068 43.8553C50.4429 39.9373 53.3998 37.2052 57.6668 36.394C59.0516 36.132 62.2707 36.2318 63.6309 36.569V36.5687Z"/></g><defs><clipPath id="clip0"><rect width="78.605" height="78.605" fill="#fff" transform="translate(0.20459 0.30365)"/></clipPath></defs></svg>