<svg width="88" height="88" viewBox="0 0 88 88" fill="none" xmlns="http://www.w3.org/2000/svg">
<path d="M79.7776 13.8325L63.9211 6.1985C63.0256 5.76674 62.018 5.62426 61.0379 5.79081C60.0579 5.95736 59.1539 6.42468 58.4513 7.128L6.54508 54.45C5.9153 55.0214 5.53832 55.8197 5.49707 56.6691C5.45581 57.5184 5.75365 58.3494 6.32508 58.9792C6.39383 59.0535 6.46258 59.125 6.53683 59.191L10.7746 63.041C11.3283 63.545 12.0411 63.8391 12.7891 63.8722C13.5372 63.9054 14.2732 63.6755 14.8693 63.2225L77.3906 15.8125C77.8628 15.4541 78.4257 15.2347 79.0159 15.1789C79.6061 15.1232 80.2001 15.2332 80.7311 15.4967C81.2621 15.7602 81.7091 16.1667 82.0216 16.6705C82.3341 17.1742 82.4998 17.7552 82.5001 18.348V18.1637C82.5 17.2587 82.2445 16.3721 81.7629 15.6059C81.2812 14.8396 80.5931 14.2249 79.7776 13.8325V13.8325Z" fill="#0065A9"/>
<path d="M79.7776 74.1675L63.9211 81.8042C63.0253 82.2348 62.018 82.3766 61.0383 82.2101C60.0585 82.0436 59.1546 81.577 58.4513 80.8747L6.54508 33.55C5.9153 32.9785 5.53832 32.1803 5.49707 31.3309C5.45581 30.4815 5.75365 29.6505 6.32508 29.0208C6.39383 28.9465 6.46258 28.875 6.53683 28.809L10.7746 24.959C11.3289 24.4529 12.0433 24.1575 12.7932 24.1243C13.543 24.0911 14.2807 24.3223 14.8776 24.7775L77.3906 72.1875C77.8628 72.5458 78.4257 72.7653 79.0159 72.8211C79.6061 72.8768 80.2001 72.7668 80.7311 72.5033C81.2621 72.2398 81.7091 71.8333 82.0216 71.3295C82.3341 70.8258 82.4998 70.2448 82.5001 69.652V69.85C82.4971 70.7526 82.2402 71.6362 81.7588 72.3997C81.2773 73.1632 80.5908 73.7758 79.7776 74.1675Z" fill="#007ACC"/>
<path d="M63.9209 81.8043C63.0252 82.2348 62.0179 82.3766 61.0381 82.2101C60.0583 82.0436 59.1544 81.577 58.4512 80.8748C58.8461 81.2645 59.3473 81.5291 59.8919 81.6352C60.4365 81.7414 61.0003 81.6845 61.5127 81.4716C62.0251 81.2587 62.4633 80.8993 62.7723 80.4385C63.0813 79.9776 63.2475 79.4359 63.2499 78.881V9.119C63.2504 8.56155 63.0854 8.0165 62.7758 7.55289C62.4663 7.08929 62.0261 6.728 61.511 6.51479C60.9959 6.30157 60.4292 6.24603 59.8825 6.3552C59.3358 6.46436 58.8339 6.73332 58.4402 7.128C59.1429 6.42494 60.0467 5.95759 61.0266 5.79058C62.0065 5.62357 63.014 5.76515 63.9099 6.19575L79.7637 13.8188C80.5818 14.2093 81.2727 14.8231 81.7569 15.5895C82.2411 16.3559 82.4986 17.2435 82.4999 18.15V69.85C82.5002 70.7558 82.2445 71.6432 81.7623 72.41C81.2801 73.1768 80.5911 73.7917 79.7747 74.184L63.9209 81.8043Z" fill="#1F9CF0"/>
</svg>
