<?xml version="1.0" standalone="no"?>
<!DOCTYPE svg PUBLIC "-//W3C//DTD SVG 20010904//EN"
 "http://www.w3.org/TR/2001/REC-SVG-20010904/DTD/svg10.dtd">
<svg version="1.0" xmlns="http://www.w3.org/2000/svg"
 width="2032.000000pt" height="2032.000000pt" viewBox="0 0 2032.000000 2032.000000"
 preserveAspectRatio="xMidYMid meet">
<metadata>
Created by potrace 1.14, written by Peter Selinger 2001-2017
</metadata>
<g transform="translate(0.000000,2032.000000) scale(0.100000,-0.100000)"
fill="#000000" stroke="none">
<path d="M5115 13386 c-228 -53 -397 -205 -450 -407 -19 -70 -19 -220 0 -292
71 -272 346 -446 668 -423 116 8 166 21 267 69 251 119 381 428 290 692 -54
158 -196 289 -375 345 -89 29 -308 37 -400 16z"/>
<path d="M17210 12253 l0 -857 -62 61 c-235 229 -534 346 -923 360 -517 18
-969 -141 -1298 -456 -305 -293 -480 -664 -528 -1119 -17 -163 -7 -476 20
-625 71 -389 238 -709 507 -967 315 -302 737 -460 1229 -460 431 0 763 119
1013 366 l82 81 0 -199 0 -198 490 0 490 0 0 2435 0 2435 -510 0 -510 0 0
-857z m-720 -1284 c177 -28 336 -112 470 -249 130 -132 203 -270 243 -460 27
-127 28 -367 3 -493 -60 -305 -225 -529 -479 -651 -145 -70 -203 -81 -407 -80
-160 0 -182 3 -263 27 -318 97 -538 343 -607 677 -54 265 -26 539 80 755 119
244 349 423 607 469 94 17 264 20 353 5z"/>
<path d="M200 12400 l0 -430 1230 0 c677 0 1230 -2 1230 -5 0 -3 -565 -686
-1255 -1518 l-1254 -1512 -1 -347 0 -348 2005 0 2005 0 0 435 0 435 -1301 2
-1301 3 848 1025 c466 564 1029 1244 1251 1512 l403 488 0 345 0 345 -1930 0
-1930 0 0 -430z"/>
<path d="M11680 11809 c-310 -30 -618 -108 -880 -220 -139 -59 -347 -182 -342
-201 7 -26 355 -698 362 -698 4 0 38 21 76 47 278 187 722 298 1067 265 393
-37 616 -215 672 -538 8 -48 15 -101 15 -120 l0 -32 -577 -5 c-608 -4 -645 -7
-870 -56 -392 -85 -657 -274 -793 -564 -65 -139 -84 -234 -84 -427 0 -138 3
-179 22 -254 87 -344 344 -607 713 -730 207 -69 380 -91 649 -83 328 9 546 70
748 210 79 54 169 145 220 222 l32 48 0 -216 0 -217 480 0 480 0 0 1080 c0
677 -4 1117 -10 1178 -41 384 -166 672 -384 887 -222 218 -517 352 -908 411
-124 19 -549 27 -688 13z m968 -2273 l2 -179 -30 -65 c-73 -156 -172 -255
-328 -330 -138 -65 -247 -85 -437 -79 -156 5 -235 21 -329 69 -61 31 -139 111
-172 175 -27 54 -29 66 -29 173 0 99 3 122 24 167 29 66 113 146 185 178 142
63 245 73 741 71 l370 -1 3 -179z"/>
<path d="M4770 10005 l0 -1765 510 0 510 0 0 1765 0 1765 -510 0 -510 0 0
-1765z"/>
<path d="M6223 11758 c3 -7 104 -242 225 -523 199 -461 1188 -2761 1268 -2947
l33 -76 -34 -71 c-98 -203 -211 -318 -365 -372 -94 -33 -280 -33 -400 -1 -104
28 -226 86 -307 146 -45 33 -64 42 -71 33 -26 -34 -362 -708 -357 -717 13 -21
135 -100 222 -144 112 -57 264 -107 409 -137 166 -34 466 -38 633 -10 327 56
587 196 792 427 84 94 207 283 273 417 49 100 1682 3926 1693 3970 5 16 -23
17 -484 17 l-490 0 -488 -1172 c-268 -645 -493 -1183 -500 -1196 -10 -21 -64
105 -506 1172 l-494 1196 -529 0 c-419 0 -527 -3 -523 -12z"/>
<path d="M19415 9444 c-234 -50 -422 -236 -471 -464 -27 -126 -11 -305 36
-415 98 -228 327 -375 585 -375 185 0 321 56 450 185 138 138 191 281 182 490
-6 138 -31 220 -97 318 -144 215 -415 318 -685 261z"/>
</g>
</svg>
